<?xml version="1.0" encoding="utf-8"?>
<!-- Generator: Adobe Illustrator 27.5.0, SVG Export Plug-In . SVG Version: 6.00 Build 0)  -->
<svg version="1.1" xmlns="http://www.w3.org/2000/svg" xmlns:xlink="http://www.w3.org/1999/xlink" x="0px" y="0px"
	 viewBox="0 0 3710 3710" style="enable-background:new 0 0 3710 3710;" xml:space="preserve">
<g id="Background">
	<g>
		<g>
			<rect style="fill:#FFFFFF;" width="3710" height="3710"/>
		</g>
	</g>
</g>
<g id="Illustration">
	<g>
		<path style="fill:#F4F7FA;" d="M3251.411,1716.902c-47.472-309.843-181.931-609.975-418.824-832.53
			c-238.013-223.629-559.826-371.411-922.026-382.083c-47.996-1.421-95.552-0.381-142.564,2.98
			C1118.735,551.561,577.32,1041.786,490.53,1671.719C388.797,2410.348,948.759,3074.896,1637.798,3181.34
			C2494.81,3313.737,3444.902,2979.781,3251.411,1716.902z"/>
		<g>
			<defs>
				<rect id="SVGID_1_" x="513.426" y="1487.823" width="883.167" height="1372.305"/>
			</defs>
			<clipPath id="SVGID_00000175288374742270417230000000220518018847789992_">
				<use xlink:href="#SVGID_1_"  style="overflow:visible;"/>
			</clipPath>
			<g style="clip-path:url(#SVGID_00000175288374742270417230000000220518018847789992_);">
				<g>
					<defs>
						<path id="SVGID_00000132797350336584596630000013601947695450551736_" d="M2021.319,3386.407l-205.93,149.064
							c0,0-115.231-77.577-118.73-188.658c-7.139-226.639-205.139-204.569-289.452-207.731
							c-127.151-4.769-237.121-64.425-146.572-190.596c90.549-126.171-163.268-224.318-369.726-202.425
							c-202.034,21.424-356.699-325.351,76.321-411.872c258.598-51.67,377.241,176.281,464.521,277.15s253.824-6.112,294.22,165.051
							c34.505,146.204,4.868,292.476,128.63,320.577S2048.058,3206.57,2021.319,3386.407z"/>
					</defs>
					<clipPath id="SVGID_00000158727131030393010430000014781363002297407118_">
						<use xlink:href="#SVGID_00000132797350336584596630000013601947695450551736_"  style="overflow:visible;"/>
					</clipPath>
					
						<linearGradient id="SVGID_00000155122152438579560100000007732527151868653473_" gradientUnits="userSpaceOnUse" x1="8562.9346" y1="-223.9673" x2="8056.8311" y2="1214.4323" gradientTransform="matrix(-0.81 0.5864 0.5864 0.81 7856.5708 -2388.1819)">
						<stop  offset="0.0036" style="stop-color:#E38DDD"/>
						<stop  offset="1" style="stop-color:#9571F6"/>
					</linearGradient>
					
						<path style="clip-path:url(#SVGID_00000158727131030393010430000014781363002297407118_);fill:url(#SVGID_00000155122152438579560100000007732527151868653473_);" d="
						M2021.319,3386.407l-205.93,149.064c0,0-115.231-77.577-118.73-188.658c-7.139-226.639-205.139-204.569-289.452-207.731
						c-127.151-4.769-222.331-60.954-163.26-184.852c66.835-140.184-146.579-230.063-353.038-208.169
						c-202.034,21.424-356.699-325.351,76.321-411.872c258.598-51.67,377.241,176.281,464.521,277.15s253.824-6.112,294.22,165.051
						c34.505,146.204,4.868,292.476,128.63,320.577S2048.058,3206.57,2021.319,3386.407z"/>
					<g style="opacity:0.9;clip-path:url(#SVGID_00000158727131030393010430000014781363002297407118_);">
						<path style="fill:#BEB8F2;" d="M1946.027,3470.035l-4.844,2.312c-1.431-3-145.851-302.833-378.645-556.899
							c-214.464-234.065-550.004-476.048-930.598-299.643l-2.257-4.869c169.422-78.529,344.146-82.112,519.32-10.653
							c139.934,57.083,280.423,161.927,417.566,311.618C1799.878,3166.562,1944.591,3467.03,1946.027,3470.035z"/>
						<path style="fill:#BEB8F2;" d="M1220.914,2633.306l-4.705,2.585c-86.06-156.526-288.403-320.892-290.436-322.535l3.369-4.177
							C931.185,2310.829,1134.349,2475.862,1220.914,2633.306z"/>
						<path style="fill:#BEB8F2;" d="M1102.891,2588.892c-212.347,14.754-317.409,157.479-318.444,158.918l-4.356-3.133
							c1.05-1.463,107.478-146.202,322.428-161.139L1102.891,2588.892z"/>
						<path style="fill:#BEB8F2;" d="M1705.681,3089.839c-196.975-169.781-512.132-18.26-515.079-16.527l-3.015-4.434
							c2.731-1.975,322.874-154.394,521.597,16.896L1705.681,3089.839z"/>
						<path style="fill:#BEB8F2;" d="M1644.155,3002.016l-4.9,2.196c-67.89-151.417,9.316-345.304,10.105-347.246l4.972,2.018
							C1653.553,2660.906,1577.209,2852.715,1644.155,3002.016z"/>
						<path style="fill:#BEB8F2;" d="M1917.419,3425.666c-64.016-75.239-223.641-55.961-225.246-55.76l-0.675-5.322
							c6.668-0.848,164.104-19.856,230.009,57.605L1917.419,3425.666z"/>
						<path style="fill:#BEB8F2;" d="M1884.174,3354.203l-4.816,2.37c-34.498-70.078,9.484-207.8,23.938-253.056
							c2.042-6.396,3.805-11.917,3.926-12.962l5.339,0.538c-0.149,1.477-1.31,5.151-4.153,14.056
							C1894.118,3149.896,1850.631,3286.066,1884.174,3354.203z"/>
					</g>
				</g>
				<g>
					
						<linearGradient id="SVGID_00000018216462247824499460000008564775456425255840_" gradientUnits="userSpaceOnUse" x1="-5957.1636" y1="1854.1184" x2="-5424.0522" y2="3254.9133" gradientTransform="matrix(0.9905 -0.1375 0.1375 0.9905 6498.7432 -1034.9763)">
						<stop  offset="0.0036" style="stop-color:#E38DDD"/>
						<stop  offset="1" style="stop-color:#9571F6"/>
					</linearGradient>
					<path style="fill:url(#SVGID_00000018216462247824499460000008564775456425255840_);" d="M1206.665,2644.859
						c-22.277,53.026,4.752,101.817,29.841,134.06c5.509-0.443,8.791,0.706,14.428,1.489c50.883,7.065,74.096-0.762,125.349-1.717
						c11.032-0.206,43.229-10.656,56.11-15.771l23.863-9.919c0,0,35.937-127.408-33.875-155.727
						c-69.812-28.319-51.031-153.654-49.264-221.278c1.084-41.527-11.722-60.865-13.773-76.188
						c-21.711-162.199,23.813-214.108-15.648-262.515c-43.561-53.438-111.508-5.474-161.967-61.102
						c-56.977-62.816-8.592-166.149-75.795-213.544c-11.521-8.126-23.581-16.161-41.971-20.096
						c-45.394-9.713-79.559,18.858-113.976-15.328c-69.178-68.714-175.953-86.299-234.21-4.425
						c-57.495,80.806,26.49,224.556,220.522,329.185c129.504,90.141,133.199,120.15,127.758,194.475
						c-3.809,52.06-48.626,190.684,29.409,237.77C1171.502,2531.317,1232.133,2584.24,1206.665,2644.859z"/>
					<g>
						<defs>
							<path id="SVGID_00000167355077518652138180000008117125358590684070_" d="M1271.53,2817.739l180.893-59.888
								c0,0,39.771-132.256-30.041-160.575c-69.812-28.319-51.031-153.654-49.265-221.278
								c4.793-183.483-205.293-148.734-219.281-384.265c-3.72-62.644,11.644-184.066-47.901-229.084
								c-67.839-51.288-111.686,8.539-155.946-35.424c-69.178-68.714-175.954-86.298-234.21-4.425
								c-57.496,80.806,26.49,224.556,220.521,329.185c129.506,90.141,133.199,120.15,127.759,194.475
								c-3.81,52.06-48.626,190.685,29.409,237.771s138.664,100.009,113.198,160.628
								C1167.915,2737.098,1271.53,2817.739,1271.53,2817.739z"/>
						</defs>
						<clipPath id="SVGID_00000159432115196763489030000009076550393326228907_">
							<use xlink:href="#SVGID_00000167355077518652138180000008117125358590684070_"  style="overflow:visible;"/>
						</clipPath>
						<g style="opacity:0.5;clip-path:url(#SVGID_00000159432115196763489030000009076550393326228907_);">
							<path style="fill:#FCFDFE;" d="M1349.813,2782.899l3.701-0.755c-3.977-20.473-8.261-41.065-12.732-61.204
								c-33.113-149.107-80.037-289.398-139.472-416.98c-50.362-108.103-110.389-208.615-178.413-298.742
								c-54.705-72.48-114.857-138.669-178.784-196.728c-44.941-40.813-91.268-77.219-137.698-108.202
								c-8.09-5.401-16.704-10.489-25.035-15.41c-11.099-6.556-22.577-13.335-32.902-20.907l-2.388,2.8
								c10.467,7.677,22.021,14.502,33.196,21.103c8.29,4.896,16.861,9.959,24.869,15.305
								c46.284,30.885,92.474,67.182,137.286,107.881c63.769,57.914,123.777,123.947,178.356,196.259
								c67.884,89.942,127.791,190.253,178.056,298.148c59.335,127.366,106.183,267.434,139.244,416.311
								C1341.563,2741.889,1345.841,2762.451,1349.813,2782.899z"/>
							<path style="fill:#FCFDFE;" d="M1097.569,2120.329l3.314-1.78c-76.423-130.218-30.975-386.884-30.506-389.46l-3.708-0.462
								C1066.198,1731.216,1020.534,1989.068,1097.569,2120.329z"/>
							<path style="fill:#FCFDFE;" d="M1276.477,2503.346l3.498-1.416c-40.628-94.575-240.903-153.018-242.921-153.597l-1.227,3.368
								C1037.829,2352.276,1236.485,2410.249,1276.477,2503.346z"/>
							<path style="fill:#FCFDFE;" d="M1294.491,2559.048l3.687-0.826c-14.244-65.565,4.101-163.425,51.656-275.549
								c2.391-5.638,2.391-5.638,2.26-6.29l-3.697,0.783l1.848-0.392l-1.837-0.278c-0.114,0.391-1.016,2.52-2.064,4.987
								C1298.518,2394.248,1280.102,2492.821,1294.491,2559.048z"/>
							<path style="fill:#FCFDFE;" d="M1341.985,2745.652l3.32-1.768c-37.314-64.212-153.014-80.851-154.177-81.011l-0.687,3.481
								C1191.588,2666.512,1305.525,2682.91,1341.985,2745.652z"/>
							<path style="fill:#FCFDFE;" d="M1355.507,2782.682c10.758-59.388,39.997-118.472,89.386-180.626l-2.99-2.03
								c-49.767,62.633-79.24,122.23-90.103,182.197L1355.507,2782.682z"/>
							<path style="fill:#FCFDFE;" d="M878.468,1845.851l3.208-1.947c-46.897-70.03-78.385-154.39-88.732-182.111
								c-2.505-6.71-3.395-9.069-3.86-9.835l-3.288,1.823c0.346,0.59,1.778,4.425,3.59,9.283
								C799.767,1690.873,831.357,1775.501,878.468,1845.851z"/>
							<path style="fill:#FCFDFE;" d="M973.166,1948.523l2.488-2.724c-63.209-49.907-231.453-33.634-238.584-32.917l0.263,3.498
								C739.063,1916.206,911.136,1899.548,973.166,1948.523z"/>
						</g>
					</g>
				</g>
				<g>
					
						<linearGradient id="SVGID_00000099624074180121127330000016922795524790128516_" gradientUnits="userSpaceOnUse" x1="-171.6599" y1="1509.9584" x2="546.0481" y2="2691.4907" gradientTransform="matrix(0.9706 -0.2407 0.2407 0.9706 849.5972 757.2829)">
						<stop  offset="0" style="stop-color:#FCB148"/>
						<stop  offset="0.0521" style="stop-color:#FDBA46"/>
						<stop  offset="0.1424" style="stop-color:#FFC244"/>
						<stop  offset="0.3183" style="stop-color:#FFC444"/>
						<stop  offset="0.4849" style="stop-color:#FDB946"/>
						<stop  offset="0.7754" style="stop-color:#F99C4D"/>
						<stop  offset="0.8658" style="stop-color:#F8924F"/>
						<stop  offset="1" style="stop-color:#F8924F"/>
					</linearGradient>
					<path style="fill:url(#SVGID_00000099624074180121127330000016922795524790128516_);" d="M1571.83,3168.08
						c12.188-4.7-18.665-65.973-2.578-158.127c4.019-23.023,17.23-150.117,109.63-176.429c17.936-5.108,35.873-10.217,53.809-15.325
						c5.538-44.49,2.515-87.448-56.231-89.467c-91.231-3.135-126.428-145.422-114.679-201.739
						c14.54-69.702,44.941-232.539-95.934-239.515c-117.278-5.809-195.117,13.451-233.854-118.558
						c-38.737-132.011-135.171-196.515-261.355-156.917c-132.79,41.671-282.73-101.145-379.915-16.973
						c-169.337,146.669,73.357,398.71,327.098,426.405c253.739,27.695,138.105,140.796,157.213,251.939
						c2.358,10.217,6.802,25.875,15.556,43.36c53.895,107.647,177.753,97.918,285.909,170.257
						C1523.999,2985.646,1551.297,3175.999,1571.83,3168.08z"/>
					<g>
						<defs>
							<path id="SVGID_00000068676437382538060690000012545599167893431475_" d="M1437.081,2927.53l293.066-74.724
								c7.603-43.691,11.933-121.819-53.687-124.074c-91.232-3.136-126.428-145.423-114.68-201.739
								c14.541-69.702,44.941-232.539-95.935-239.516c-117.278-5.808-195.116,13.452-233.853-118.558
								c-38.737-132.01-135.172-196.514-261.356-156.916c-132.789,41.67-282.73-101.146-379.914-16.972
								c-169.338,146.668,73.357,398.708,327.096,426.404c253.74,27.695,138.106,140.795,157.213,251.939
								c26.086,151.735,231.902,67.085,301.858,111.942C1431.731,2820.481,1438.286,2886.084,1437.081,2927.53z"/>
						</defs>
						<clipPath id="SVGID_00000096769156991715961110000007405015612706736009_">
							<use xlink:href="#SVGID_00000068676437382538060690000012545599167893431475_"  style="overflow:visible;"/>
						</clipPath>
						<g style="opacity:0.5;clip-path:url(#SVGID_00000096769156991715961110000007405015612706736009_);">
							<path style="fill:#FCFDFE;" d="M1564.551,2848.635l5.952-2.751c-193.66-409.089-597.525-718.533-1053.989-807.571
								l-1.532,6.112C969.523,2133.088,1371.695,2441.244,1564.551,2848.635z"/>
							<path style="fill:#FCFDFE;" d="M1438.648,2634.993l6.358-1.592c-40.845-173.218,83.677-347.416,84.941-349.155l-5.303-3.425
								C1523.362,2282.582,1397.16,2459.044,1438.648,2634.993z"/>
							<path style="fill:#FCFDFE;" d="M1526.744,2774.388l4.92-4.264c-124.366-132.526-465.973-70.104-469.409-69.457l1.018,6.117
								C1066.672,2706.145,1404.742,2644.382,1526.744,2774.388z"/>
							<path style="fill:#FCFDFE;" d="M1124.401,2316.339l5.269-3.859c-88.595-113.16-47.011-331.863-46.581-334.058l-6.399-0.925
								C1076.253,1979.72,1034.168,2201.089,1124.401,2316.339z"/>
							<path style="fill:#FCFDFE;" d="M873.665,2163.732l2.12-5.971c-162.199-47.393-372.234,53.863-374.339,54.896l2.785,5.531
								C506.308,2217.166,713.994,2117.075,873.665,2163.732z"/>
						</g>
					</g>
				</g>
			</g>
		</g>
		<g>
			<g>
				<defs>
					<path id="SVGID_00000080897755101065587930000013366356159306229667_" d="M2439.515,2761.608l252.564,28.96
						c0,0,62.399-124.108,10.99-222.639c-104.891-201.033,78.501-278.869,150.436-322.961
						c108.484-66.494,175.083-172.403,34.306-237.977c-140.778-65.574,32.324-275.555,223.002-357.692
						c186.591-80.377,151.381-458.444-268.446-321.559c-250.719,81.747-242.369,338.59-268.987,469.295
						s-224.223,119.114-175.516,288.099c41.604,144.344,139.148,257.301,45.057,342.469
						C2348.829,2512.771,2328.042,2617.976,2439.515,2761.608z"/>
				</defs>
				<clipPath id="SVGID_00000171721366904886860870000007755695804304457614_">
					<use xlink:href="#SVGID_00000080897755101065587930000013366356159306229667_"  style="overflow:visible;"/>
				</clipPath>
				
					<linearGradient id="SVGID_00000116194970166832596860000002726200266565446810_" gradientUnits="userSpaceOnUse" x1="4215.6685" y1="835.3973" x2="3709.5776" y2="2273.7617" gradientTransform="matrix(0.9935 0.1139 -0.1139 0.9935 -1038.104 32.7456)">
					<stop  offset="0.0036" style="stop-color:#E38DDD"/>
					<stop  offset="1" style="stop-color:#9571F6"/>
				</linearGradient>
				
					<path style="clip-path:url(#SVGID_00000171721366904886860870000007755695804304457614_);fill:url(#SVGID_00000116194970166832596860000002726200266565446810_);" d="
					M2439.515,2761.608l252.564,28.96c0,0,62.399-124.108,10.99-222.639c-104.891-201.033,78.501-278.869,150.436-322.961
					c108.484-66.494,163.894-162.127,51.667-241.152c-126.979-89.413,14.963-272.379,205.64-354.517
					c186.591-80.377,151.381-458.444-268.446-321.559c-250.719,81.747-242.369,338.59-268.987,469.295
					s-224.223,119.114-175.516,288.099c41.604,144.344,139.148,257.301,45.057,342.469
					C2348.829,2512.771,2328.042,2617.976,2439.515,2761.608z"/>
				<g style="opacity:0.9;clip-path:url(#SVGID_00000171721366904886860870000007755695804304457614_);">
					<path style="fill:#BEB8F2;" d="M2546.138,2797.583l5.355-0.36c-0.223-3.317-21.348-335.447,56.989-671.015
						c72.167-309.149,245.979-684.559,664.18-717.4l-0.419-5.35c-186.164,14.618-340.205,97.156-457.849,245.319
						c-93.977,118.357-165.023,278.613-211.164,476.316C2524.735,2461.431,2545.916,2794.259,2546.138,2797.583z"/>
					<path style="fill:#BEB8F2;" d="M2767.908,1712.814l5.368-0.054c-1.732-178.616,94.042-421.075,95.009-423.503l-4.985-1.989
						C2862.329,1289.708,2766.166,1533.151,2767.908,1712.814z"/>
					<path style="fill:#BEB8F2;" d="M2848.999,1616.241c192.31-91.246,353.852-18.361,355.459-17.614l2.26-4.866
						c-1.632-0.761-165.353-74.733-360.02,17.63L2848.999,1616.241z"/>
					<path style="fill:#BEB8F2;" d="M2569.22,2348.381c88.44-244.546,437.408-266.995,440.827-266.929l0.454-5.343
						c-3.348-0.382-357.102,23.729-446.326,270.447L2569.22,2348.381z"/>
					<path style="fill:#BEB8F2;" d="M2579.788,2241.673l5.347-0.489c-15.063-165.255-177.41-296.391-179.05-297.696l-3.344,4.196
						C2404.363,1948.977,2564.939,2078.724,2579.788,2241.673z"/>
					<path style="fill:#BEB8F2;" d="M2549.319,2744.886c18.908-96.961,167.484-158.418,168.982-159.029l-2.021-4.97
						c-6.227,2.53-152.764,63.149-172.228,162.972L2549.319,2744.886z"/>
					<path style="fill:#BEB8F2;" d="M2543.259,2666.302l5.359-0.295c-4.289-77.991-110.143-176.463-144.928-208.822
						c-4.916-4.573-9.159-8.521-9.776-9.373l-4.39,3.087c0.854,1.215,3.667,3.847,10.511,10.215
						C2434.427,2493.108,2539.088,2590.471,2543.259,2666.302z"/>
				</g>
			</g>
			<g>
				
					<linearGradient id="SVGID_00000178184094125650854050000002036664198177784760_" gradientUnits="userSpaceOnUse" x1="-1375.4878" y1="722.4648" x2="-842.359" y2="2123.3062" gradientTransform="matrix(-0.9307 0.3657 0.3657 0.9307 807.6866 546.2846)">
					<stop  offset="0.0036" style="stop-color:#E38DDD"/>
					<stop  offset="1" style="stop-color:#9571F6"/>
				</linearGradient>
				<path style="fill:url(#SVGID_00000178184094125650854050000002036664198177784760_);" d="M2546.03,1781.691
					c45.413,35.295,45.776,91.071,39.716,131.473c-5.019,2.314-7.316,4.925-11.845,8.372
					c-40.884,31.104-64.954,35.662-110.092,59.958c-9.716,5.23-42.902,11.906-56.636,13.764l-25.661,3.054
					c0,0-93.785-93.426-46.823-152.335c46.962-58.908-30.854-158.939-65.547-217.013c-21.304-35.662-19.624-58.795-25.348-73.156
					c-60.598-152.012-125.724-174.936-115.064-236.473c11.768-67.932,94.504-59.439,111.21-132.661
					c18.864-82.682-73.968-149.023-38.632-223.279c6.058-12.731,12.629-25.647,26.728-38.093
					c34.802-30.72,78.587-22.569,91.823-69.237c26.605-93.805,111.047-161.48,201.962-118.681
					c89.728,42.24,87.003,208.704-30.813,395.023c-68.68,142.056-57.187,170.023-16.006,232.135
					c28.843,43.506,135.867,142.355,90.938,221.652C2521.011,1665.492,2494.113,1741.343,2546.03,1781.691z"/>
				<g>
					<defs>
						<path id="SVGID_00000158724832754226976130000010183642676869985421_" d="M2574.252,1964.17l-187.022,36.489
							c0,0-99.504-95.772-52.542-154.681c46.963-58.909-30.853-158.939-65.547-217.013
							c-94.132-157.569,106.009-230.281,2.728-442.421c-27.469-56.423-100.39-154.718-70.562-223.147
							c33.982-77.961,101.529-47.313,118.551-107.33c26.605-93.805,111.048-161.479,201.962-118.681
							c89.728,42.24,87.003,208.704-30.812,395.023c-68.681,142.057-57.187,170.023-16.008,232.135
							c28.844,43.506,135.867,142.356,90.939,221.653c-44.928,79.297-71.825,155.147-19.91,195.496
							C2625.025,1843.086,2574.252,1964.17,2574.252,1964.17z"/>
					</defs>
					<clipPath id="SVGID_00000033348029454848931120000017453983932654078386_">
						<use xlink:href="#SVGID_00000158724832754226976130000010183642676869985421_"  style="overflow:visible;"/>
					</clipPath>
					<g style="opacity:0.5;clip-path:url(#SVGID_00000033348029454848931120000017453983932654078386_);">
						<path style="fill:#FCFDFE;" d="M2488.942,1972.184l-3.596,1.156c-6.571-19.794-12.933-39.842-18.91-59.586
							c-44.241-146.192-72.124-291.471-82.871-431.807c-9.105-118.911-6.065-235.943,9.037-347.845
							c12.145-89.992,32.121-177.17,59.375-259.114c19.16-57.605,41.689-112.048,66.967-161.814
							c4.403-8.674,9.417-17.331,14.265-25.705c6.46-11.155,13.14-22.691,18.426-34.353l3.454,1.27
							c-5.359,11.822-12.083,23.436-18.586,34.667c-4.825,8.331-9.813,16.946-14.172,25.532
							c-25.198,49.61-47.661,103.89-66.765,161.333c-27.187,81.74-47.114,168.712-59.231,258.496
							c-15.071,111.672-18.105,228.471-9.017,347.153c10.728,140.099,38.567,285.147,82.742,431.112
							C2476.026,1932.396,2482.379,1952.415,2488.942,1972.184z"/>
						<path style="fill:#FCFDFE;" d="M2383.956,1271.038l-3.761,0.074c2.767-150.962-162.678-352.383-164.351-354.399l3.005-2.221
							C2220.529,916.518,2386.745,1118.868,2383.956,1271.038z"/>
						<path style="fill:#FCFDFE;" d="M2415.804,1692.579l-3.743,0.481c-10.956-102.347,134.946-251.472,136.42-252.967l2.721,2.334
							C2549.739,1443.909,2405.018,1591.831,2415.804,1692.579z"/>
						<path style="fill:#FCFDFE;" d="M2427.413,1749.958l-3.619,1.088c-19.729-64.128-83.696-140.426-180.114-214.836
							c-4.848-3.742-4.848-3.742-5.053-4.374l3.606-1.13l-1.803,0.565l1.465-1.143c0.291,0.285,2.121,1.698,4.244,3.335
							C2343.107,1608.298,2407.485,1685.182,2427.413,1749.958z"/>
						<path style="fill:#FCFDFE;" d="M2477.503,1935.882l-3.76,0.086c1.041-74.259,93.725-145.484,94.659-146.195l2.305,2.697
							C2569.786,1793.172,2478.521,1863.323,2477.503,1935.882z"/>
						<path style="fill:#FCFDFE;" d="M2483.872,1974.786c-38.492-46.487-92.943-83.648-166.461-113.606l1.611-3.235
							c74.083,30.19,128.989,67.684,167.856,114.624L2483.872,1974.786z"/>
						<path style="fill:#FCFDFE;" d="M2440.352,924.394l-3.75-0.125c6.541-84.028-7.373-172.992-11.946-202.225
							c-1.107-7.077-1.488-9.569-1.458-10.464l3.759-0.023c-0.013,0.684,0.62,4.729,1.422,9.851
							C2432.965,750.735,2446.923,839.982,2440.352,924.394z"/>
						<path style="fill:#FCFDFE;" d="M2408.152,1060.307l-3.504-1.154c30.624-74.487,185.239-142.787,191.806-145.659l1.486,3.178
							C2596.346,917.368,2438.205,987.211,2408.152,1060.307z"/>
					</g>
				</g>
			</g>
			<g>
				
					<linearGradient id="SVGID_00000018203952213259115160000016903340176729377156_" gradientUnits="userSpaceOnUse" x1="4338.6099" y1="817.0367" x2="5056.2949" y2="1998.5317" gradientTransform="matrix(-0.964 0.266 0.266 0.964 6609.7207 -660.8806)">
					<stop  offset="0" style="stop-color:#FCB148"/>
					<stop  offset="0.0521" style="stop-color:#FDBA46"/>
					<stop  offset="0.1424" style="stop-color:#FFC244"/>
					<stop  offset="0.3183" style="stop-color:#FFC444"/>
					<stop  offset="0.4849" style="stop-color:#FDB946"/>
					<stop  offset="0.7754" style="stop-color:#F99C4D"/>
					<stop  offset="0.8658" style="stop-color:#F8924F"/>
					<stop  offset="1" style="stop-color:#F8924F"/>
				</linearGradient>
				<path style="fill:url(#SVGID_00000018203952213259115160000016903340176729377156_);" d="M2629.858,2326.236
					c-12.927,1.879-16.076-66.651-75.278-139.083c-14.79-18.096-88.614-122.39-182.047-100.023
					c-18.136,4.342-36.275,8.682-54.411,13.024c-26.639-36.061-45.065-74.984,5.147-105.545
					c77.977-47.46,38.896-188.729,1.046-232.053c-46.845-53.622-153.175-180.642-33.812-255.788
					c99.369-62.56,176.654-83.935,145.696-217.982c-30.958-134.048,21.467-237.547,150.859-264.898
					c136.166-28.783,196.833-226.768,322.803-201.052c219.496,44.813,131.537,383.47-76.038,532.008
					c-207.574,148.538-51.341,190.422-13.506,296.659c2.953,10.061,6.756,25.887,7.699,45.418
					c5.802,120.245-106.919,172.489-165.719,288.563C2582.106,2143.782,2651.637,2323.072,2629.858,2326.236z"/>
				<g>
					<defs>
						<path id="SVGID_00000137848480055608252520000004728249745192312467_" d="M2629.369,2050.517l-292.063,78.553
							c-28.046-34.352-70.124-100.323-14.037-134.461c77.978-47.461,38.896-188.73,1.046-232.054
							c-46.845-53.621-153.175-180.642-33.812-255.789c99.368-62.56,176.653-83.934,145.695-217.982
							c-30.958-134.048,21.469-237.547,150.861-264.898c136.165-28.783,196.831-226.769,322.802-201.051
							c219.497,44.812,131.537,383.468-76.038,532.006c-207.575,148.538-51.343,190.422-13.506,296.659
							c51.655,145.037-169.23,172.163-208.21,245.557C2581.549,1954.593,2607.999,2014.985,2629.369,2050.517z"/>
					</defs>
					<clipPath id="SVGID_00000131350804364729820430000009200612441940185483_">
						<use xlink:href="#SVGID_00000137848480055608252520000004728249745192312467_"  style="overflow:visible;"/>
					</clipPath>
					<g style="opacity:0.5;clip-path:url(#SVGID_00000131350804364729820430000009200612441940185483_);">
						<path style="fill:#FCFDFE;" d="M2479.59,2044.248l-6.536,0.521c-31.773-451.496,168.515-919.199,522.705-1220.591l4.332,4.576
							C2647.393,1128.875,2447.948,1594.627,2479.59,2044.248z"/>
						<path style="fill:#FCFDFE;" d="M2484.583,1796.318l-6.321,1.73c-49.323-170.997-243.257-261.774-245.211-262.671l2.943-5.585
							C2237.973,1530.698,2434.481,1622.625,2484.583,1796.318z"/>
						<path style="fill:#FCFDFE;" d="M2476.141,1961.001l-6.378-1.305c43.422-176.479,371.76-289.551,375.072-290.672l2.112,5.831
							C2843.67,1675.965,2518.737,1787.878,2476.141,1961.001z"/>
						<path style="fill:#FCFDFE;" d="M2602.247,1364.523l-6.484-0.78c21.739-142.063-121.727-312.291-123.178-313.994l5.124-3.943
							C2479.179,1047.529,2624.389,1219.836,2602.247,1364.523z"/>
						<path style="fill:#FCFDFE;" d="M2745.964,1108.587l-4.775-4.166c118.133-120.827,350.836-135.548,353.177-135.68l0.285,6.187
							C3092.339,975.057,2862.254,989.641,2745.964,1108.587z"/>
					</g>
				</g>
			</g>
		</g>
		<g>
			<path style="fill:#B7C0CE;" d="M2882.243,1230.691c0-67.038-39.177-123.039-88.217-125.088L986.659,1030.07
				c-2.026-0.084-3.974-0.109-5.976-0.07c-37.951,0.734-70.608,23.38-90.692,58.156c-12.668,21.935-19.423,48.697-19.423,77.881
				v101.083l0,0v1586.363c0,9.728,0.194,19.115,1.761,28.135c0.392,2.255,0.516,4.471,0.999,6.675
				c1.935,8.817,4.435,17.209,7.738,25.106c14.044,33.583,39.671,58.09,70.891,66.845c11.037,3.095,22.725,4.434,34.872,3.296
				l1395.525-130.525l-0.011,0l411.692-38.837c49.038-4.595,88.21-62.879,88.21-129.917V1317.764l0,0V1230.691z"/>
			<g>
				<path style="fill:#FFFFFF;" d="M2844.023,1104.496l-1813.947-75.585c-64.868-2.703-117.88,58.281-117.88,136.234V2855.38
					c0,77.953,53.013,136.192,117.88,130.13l1813.947-169.518c49.219-4.6,88.84-62.748,88.84-129.911V1229.807
					C2932.863,1162.644,2893.243,1106.547,2844.023,1104.496z"/>
				<path style="fill:#F4F7FA;" d="M1030.077,2940.805c-44.021,3.978-80.034-35.756-80.034-88.596V1166.356
					c0-52.84,36.012-94.439,80.034-92.74l1813.946,69.985c33.492,1.292,60.61,39.556,60.61,85.303v1459.542
					c0,45.747-27.118,85.415-60.61,88.441L1030.077,2940.805z"/>
				<path style="fill:#D8DEE8;" d="M2844.023,1104.496l-1813.946-75.585c-64.867-2.703-117.881,58.281-117.881,136.234v101.25
					l2020.669,50.647v-87.235C2932.864,1162.644,2893.244,1106.547,2844.023,1104.496z"/>
				<path style="fill:#FFFFFF;" d="M1121.155,1154.126c0,22.882-16.939,40.974-37.889,40.406
					c-21.011-0.569-38.089-19.68-38.089-42.683c0-23.003,17.078-41.09,38.089-40.4
					C1104.216,1112.138,1121.155,1131.244,1121.155,1154.126z"/>
				<path style="fill:#FFFFFF;" d="M1252.665,1158.068c0,22.673-16.63,40.603-37.198,40.046
					c-20.627-0.559-37.393-19.49-37.393-42.281c0-22.792,16.766-40.718,37.393-40.04
					C1236.035,1116.468,1252.665,1135.395,1252.665,1158.068z"/>
				<path style="fill:#FFFFFF;" d="M1381.793,1161.938c0,22.468-16.33,40.239-36.527,39.692
					c-20.254-0.549-36.716-19.303-36.716-41.887c0-22.584,16.462-40.352,36.716-39.687
					C1365.463,1120.719,1381.793,1139.47,1381.793,1161.938z"/>
				<polygon style="fill:#D8DEE8;" points="2829.114,2509.781 1049.512,2632.922 1049.512,2561.491 2829.114,2447.14 				"/>
				<polygon style="fill:#D8DEE8;" points="2829.114,2663.446 1049.512,2808.152 1049.512,2736.721 2829.114,2600.805 				"/>
				<g style="opacity:0.3;">
					<path style="fill:#FFFFFF;" d="M2165.525,1934.334c-210.28-373.105-581.557-245.122-821.347-668.046
						c-43.66-77.004-73.358-155.593-93.761-228.197l-220.34-9.181c-64.867-2.703-117.881,58.281-117.881,136.234V2855.38
						c0,77.953,53.015,136.191,117.881,130.129l1400.455-130.876c-39.956-69.364-76.942-147.574-108.318-235.756
						C2201.245,2278.892,2290.934,2156.849,2165.525,1934.334z"/>
				</g>
			</g>
		</g>
		<g>
			<g>
				
					<linearGradient id="SVGID_00000062192434400799237860000014070737970084673694_" gradientUnits="userSpaceOnUse" x1="2389.7444" y1="2359.4075" x2="2985.6062" y2="2359.4075">
					<stop  offset="0" style="stop-color:#444B8C"/>
					<stop  offset="0.9964" style="stop-color:#26264F"/>
				</linearGradient>
				<path style="fill:url(#SVGID_00000062192434400799237860000014070737970084673694_);" d="M2696.67,2666.959
					c-166.909,19.171-306.926-107.362-306.926-282.658s140.017-325.236,306.926-333.968
					c161.442-8.446,288.936,119.14,288.936,284.162S2858.113,2648.416,2696.67,2666.959z"/>
				
					<linearGradient id="SVGID_00000165920985226399268480000011144401180473529535_" gradientUnits="userSpaceOnUse" x1="2410.4077" y1="2365.7532" x2="3005.3894" y2="2365.7532">
					<stop  offset="0.0036" style="stop-color:#E38DDD"/>
					<stop  offset="1" style="stop-color:#9571F6"/>
				</linearGradient>
				<path style="fill:url(#SVGID_00000165920985226399268480000011144401180473529535_);" d="M2716.878,2673.075
					c-166.661,19.194-306.47-107.213-306.47-282.379c0-175.166,139.809-325.027,306.47-333.792
					c161.205-8.478,288.511,118.984,288.511,283.885C3005.389,2505.691,2878.083,2654.51,2716.878,2673.075z"/>
				<path style="fill:#FFFFFF;" d="M2986.036,2342.413c0,154.086-118.665,292.408-269.158,309.415
					c-155.239,17.543-284.723-99.959-284.723-262.956s129.485-302.221,284.723-310.721
					C2867.372,2069.912,2986.036,2188.327,2986.036,2342.413z"/>
				<g>
					<defs>
						<path id="SVGID_00000082331638954996607060000000791055322494820515_" d="M2966.604,2344.043
							c0,142.962-110.222,271.074-249.726,286.538c-143.572,15.915-263.069-92.924-263.069-243.525s119.497-279.487,263.069-287.657
							C2856.382,2091.46,2966.604,2201.081,2966.604,2344.043z"/>
					</defs>
					<clipPath id="SVGID_00000059272920344666571360000001210123800372946332_">
						<use xlink:href="#SVGID_00000082331638954996607060000000791055322494820515_"  style="overflow:visible;"/>
					</clipPath>
					<g style="clip-path:url(#SVGID_00000059272920344666571360000001210123800372946332_);">
						
							<linearGradient id="SVGID_00000090995892475215909930000014132687803000154541_" gradientUnits="userSpaceOnUse" x1="2808.2651" y1="2153.1604" x2="2722.7991" y2="2418.105">
							<stop  offset="0" style="stop-color:#AB316D"/>
							<stop  offset="1" style="stop-color:#792D3D"/>
						</linearGradient>
						<path style="fill:url(#SVGID_00000090995892475215909930000014132687803000154541_);" d="M2683.566,2168.678
							c-49.218,2.883-96.079,35.327-116.934,76.48c-25.169,49.668,8.428,70.128-7.969,148.558
							c-15.118,72.313-50.488,87.946-44.636,133.916c6.408,50.33,54.666,77.662,73.69,88.436
							c85.259,48.288,217.457,31.923,284.116-48.45c5.553-6.695,51.357-61.922,39.007-107.138
							c-11.06-40.492-58.576-36.083-68.438-78.417c-8.5-36.494,24.023-51.671,20.931-105.419
							c-0.605-10.516-3.469-60.305-39.687-80.119c-24.172-13.224-50.779-6.368-60.542-3.315
							C2751.374,2184.594,2722.766,2166.382,2683.566,2168.678z"/>
						
							<linearGradient id="SVGID_00000048480617582510875350000017327638040807562163_" gradientUnits="userSpaceOnUse" x1="2432.155" y1="2595.021" x2="2986.0364" y2="2595.021">
							<stop  offset="0" style="stop-color:#FF9085"/>
							<stop  offset="1" style="stop-color:#FB6FBB"/>
						</linearGradient>
						<path style="fill:url(#SVGID_00000048480617582510875350000017327638040807562163_);" d="M2432.155,2588.042
							c0,0,250.459-175.18,553.881-57.347c0,0-38.274,130.532-269.158,163.85
							C2474.635,2729.502,2432.155,2588.042,2432.155,2588.042z"/>
						
							<linearGradient id="SVGID_00000008863282453253343390000005910776843440269727_" gradientUnits="userSpaceOnUse" x1="2708.0759" y1="2387.762" x2="2709.1907" y2="2604.02">
							<stop  offset="0.0036" style="stop-color:#F36F56"/>
							<stop  offset="1" style="stop-color:#FFC444"/>
						</linearGradient>
						<path style="fill:url(#SVGID_00000008863282453253343390000005910776843440269727_);" d="M2672.936,2368.676l-9.311,72.299
							c-3.178,24.681-19.486,46.686-42.204,56.862l-76.199,34.131c0,0,145.471,57.16,327.022-33.093l-82.468-21.508
							c-23.501-6.806-39.54-28.253-40.565-54.344l-2.38-60.546L2672.936,2368.676z"/>
						
							<linearGradient id="SVGID_00000042720631789810233970000011271497432746406299_" gradientUnits="userSpaceOnUse" x1="2739.283" y1="2081.0823" x2="2689.9963" y2="2413.2297">
							<stop  offset="0.0036" style="stop-color:#F36F56"/>
							<stop  offset="1" style="stop-color:#FFC444"/>
						</linearGradient>
						<path style="fill:url(#SVGID_00000042720631789810233970000011271497432746406299_);" d="M2785.39,2296.495
							c0,60.012-34.967,127.64-78.447,131.562c-43.867,3.956-79.716-58.327-79.716-119.31c0-60.984,35.848-96.776,79.716-99.757
							C2750.423,2206.034,2785.39,2236.482,2785.39,2296.495z"/>
						
							<linearGradient id="SVGID_00000122686383525807004950000012691425700059656858_" gradientUnits="userSpaceOnUse" x1="2748.6057" y1="2132.6621" x2="2660.021" y2="2407.2751">
							<stop  offset="0" style="stop-color:#AB316D"/>
							<stop  offset="1" style="stop-color:#792D3D"/>
						</linearGradient>
						<path style="fill:url(#SVGID_00000122686383525807004950000012691425700059656858_);" d="M2741.736,2245.501
							c-23.609,2.966-59.45,11.455-84.335,40.267c-41.882,48.49-21.976,118.456-40.621,124.33
							c-16.631,5.239-42.427-43.642-42.01-99.78c0.349-47.014,15.992-103.484,56.63-120.104
							c23.811-9.737,30.814,3.049,107.277,5.687c44.355,1.53,26.972,23.303,36.943,30.267
							c44.173,30.856,38.591,143.125,14.822,146.579C2779.156,2374.387,2763.545,2346.433,2741.736,2245.501z"/>
					</g>
				</g>
			</g>
			<g>
				
					<linearGradient id="SVGID_00000007419981749239677320000005706145999037846197_" gradientUnits="userSpaceOnUse" x1="1638.053" y1="2384.7466" x2="2266.3669" y2="2384.7466">
					<stop  offset="0" style="stop-color:#444B8C"/>
					<stop  offset="0.9964" style="stop-color:#26264F"/>
				</linearGradient>
				<path style="fill:url(#SVGID_00000007419981749239677320000005706145999037846197_);" d="M1961.787,2700.542
					c-176.025,19.899-323.734-109.892-323.734-289.951c0-180.06,147.709-334.164,323.734-343.238
					c170.205-8.774,304.58,122.122,304.58,291.528S2131.992,2681.301,1961.787,2700.542z"/>
				
					<linearGradient id="SVGID_00000139977352221349422660000002084593960959871897_" gradientUnits="userSpaceOnUse" x1="1659.8542" y1="2391.2434" x2="2287.2151" y2="2391.2434">
					<stop  offset="0.0036" style="stop-color:#E38DDD"/>
					<stop  offset="1" style="stop-color:#9571F6"/>
				</linearGradient>
				<path style="fill:url(#SVGID_00000139977352221349422660000002084593960959871897_);" d="M1983.094,2706.798
					c-175.757,19.923-323.24-109.736-323.24-289.657s147.483-333.943,323.24-343.052c169.948-8.808,304.121,121.957,304.121,291.236
					S2153.042,2687.533,1983.094,2706.798z"/>
				<path style="fill:#FFFFFF;" d="M2266.82,2367.009c0,158.18-125.069,300.323-283.726,317.971
					c-163.709,18.21-300.297-102.316-300.297-269.734c0-167.418,136.588-310.507,300.297-319.34
					C2141.751,2087.346,2266.82,2208.829,2266.82,2367.009z"/>
				<g>
					<defs>
						<path id="SVGID_00000016775798159035333340000012516421241020149152_" d="M2246.341,2368.7
							c0,146.763-116.174,278.414-263.247,294.462c-151.404,16.52-277.452-95.121-277.452-249.804
							c0-154.683,126.048-287.146,277.452-295.635C2130.167,2109.477,2246.341,2221.938,2246.341,2368.7z"/>
					</defs>
					<clipPath id="SVGID_00000152948485874993101130000016128116598478306191_">
						<use xlink:href="#SVGID_00000016775798159035333340000012516421241020149152_"  style="overflow:visible;"/>
					</clipPath>
					<g style="clip-path:url(#SVGID_00000152948485874993101130000016128116598478306191_);">
						
							<linearGradient id="SVGID_00000128448029812287934610000005886740295782184068_" gradientUnits="userSpaceOnUse" x1="1860.2704" y1="2800.397" x2="2157.905" y2="2601.9734">
							<stop  offset="0.0036" style="stop-color:#E38DDD"/>
							<stop  offset="1" style="stop-color:#9571F6"/>
						</linearGradient>
						<path style="fill:url(#SVGID_00000128448029812287934610000005886740295782184068_);" d="M1673.634,2852.577
							c-24.44-62.121,10.041-167.152,31.721-214.909c62.995-138.773,178.012-147.237,271.614-154.125
							c91.341-6.721,178.954-13.168,242.727,87.636c41.504,65.604,79.56,187.101,54.192,253.774
							c-26.73,70.253-101.223,20.233-280.001,27.606C1794.584,2860.778,1704.091,2929.994,1673.634,2852.577z"/>
						
							<linearGradient id="SVGID_00000057844264811698585760000006360266935756601266_" gradientUnits="userSpaceOnUse" x1="1971.3824" y1="2542.8503" x2="1969.0161" y2="2398.5002">
							<stop  offset="0" style="stop-color:#AA80F9"/>
							<stop  offset="0.9964" style="stop-color:#6165D7"/>
						</linearGradient>
						<path style="fill:url(#SVGID_00000057844264811698585760000006360266935756601266_);" d="M2063.203,2494.863
							c0,16.99-41.227,38.829-92.251,40.626c-51.21,1.803-92.861-17.252-92.861-34.354s41.651-10.854,92.861-12.572
							C2021.976,2486.851,2063.203,2477.873,2063.203,2494.863z"/>
						
							<linearGradient id="SVGID_00000178196501017872962620000006341934630470623911_" gradientUnits="userSpaceOnUse" x1="1972.61" y1="2557.022" x2="1971.8292" y2="2432.1025">
							<stop  offset="0" style="stop-color:#AB316D"/>
							<stop  offset="1" style="stop-color:#792D3D"/>
						</linearGradient>
						<path style="fill:url(#SVGID_00000178196501017872962620000006341934630470623911_);" d="M1936.876,2380.1
							c-14.114,0.418,18.445,98.817-32.867,114.187c-4.973,1.49-5.79,8.213-1.266,10.515c13.794,7.019,39.594,15.611,81.807,14.148
							c27.354-0.948,47.329-12.01,57.692-19.365c3.542-2.514,3.189-7.834-0.603-9.674c-15.703-7.618-37.529-32.823-31.012-109.461
							L1936.876,2380.1z"/>
						
							<linearGradient id="SVGID_00000076595645026917945030000002272509561570245551_" gradientUnits="userSpaceOnUse" x1="1962.0852" y1="2396.0469" x2="1982.7008" y2="2147.8669">
							<stop  offset="0" style="stop-color:#AB316D"/>
							<stop  offset="1" style="stop-color:#792D3D"/>
						</linearGradient>
						<path style="fill:url(#SVGID_00000076595645026917945030000002272509561570245551_);" d="M1893.954,2280.143
							c0.212,1.244,4.49,92.011,25.21,136.756c5.942,12.831,35.379,10.348,54.397,8.188c16.498-1.874,42.321,3.362,49.585-8.293
							c29.166-46.797,24.226-160.337,24.226-160.337s-14.941-37.465-76.374-34.952
							C1909.295,2224.03,1893.954,2280.143,1893.954,2280.143z"/>
						
							<linearGradient id="SVGID_00000095335150888827315110000014161108329785689495_" gradientUnits="userSpaceOnUse" x1="1889.4608" y1="2391.3972" x2="1909.8772" y2="2145.6167">
							<stop  offset="0" style="stop-color:#AB316D"/>
							<stop  offset="1" style="stop-color:#792D3D"/>
						</linearGradient>
						<path style="fill:url(#SVGID_00000095335150888827315110000014161108329785689495_);" d="M1908.432,2328.557
							c0,0-12.943-14.713-25.15-16.391c-12.217-1.679-20.181,30.225-3.508,50.365c16.653,20.116,35.879,2.475,35.879,2.475
							L1908.432,2328.557z"/>
						
							<linearGradient id="SVGID_00000077303066923515983650000013414229524922656647_" gradientUnits="userSpaceOnUse" x1="2044.7421" y1="2400.3398" x2="2065.3469" y2="2152.291">
							<stop  offset="0" style="stop-color:#AB316D"/>
							<stop  offset="1" style="stop-color:#792D3D"/>
						</linearGradient>
						<path style="fill:url(#SVGID_00000077303066923515983650000013414229524922656647_);" d="M2033.936,2325.07
							c0,0,12.816-15.348,24.881-17.674c12.055-2.325,19.902,28.909,3.464,49.85c-16.458,20.966-35.506,4.529-35.506,4.529
							L2033.936,2325.07z"/>
						
							<linearGradient id="SVGID_00000062170410967363747900000001300915669481932725_" gradientUnits="userSpaceOnUse" x1="1956.4905" y1="2277.1587" x2="2011.6124" y2="2106.2012">
							<stop  offset="0" style="stop-color:#311944"/>
							<stop  offset="1" style="stop-color:#6B3976"/>
						</linearGradient>
						<path style="fill:url(#SVGID_00000062170410967363747900000001300915669481932725_);" d="M1898.301,2327.706
							c1.63,2.95,3.497,5.686,4.758,5.322c5.229-1.511-14.951-52.039,3.638-70.401c9.6-9.483,20.407-1.338,59.639-4.115
							c39.397-2.789,49.458-12.505,61.336-5.557c10.813,6.325,20.483,24.909,12.472,80.907c2.23-0.581,4.461-1.162,6.69-1.742
							c-3.004-18.186,0.275-29.803,4.022-37.168c2.733-5.372,7.678-12.335,7.293-22.194c-0.238-6.11-2.25-6.333-2.582-11.333
							c-0.97-14.661,15.655-19.027,16.456-33.547c0.617-11.177-8.94-13.485-7.193-25.197c1.486-9.959,8.947-11.985,7.767-19.126
							c-1.274-7.708-11.271-13.241-18.293-15.093c-7.165-1.89-9.756,0.442-13.959-2.384c-6.795-4.569-3.529-13.018-8.441-16.021
							c-8.751-5.35-26.165,17.159-37.432,11.894c-6.826-3.19-4.197-13.21-10.241-15.498c-11.686-4.423-32.359,28.934-40.684,24.749
							c-3.987-2.005-0.142-10.11-5.734-15.894c-6.57-6.795-22.355-6.445-29.557,1.057c-6.717,6.998-1.013,15.054-8.124,23.894
							c-6.388,7.941-13.771,4.9-20.989,11.315c-12.27,10.906-7.997,34.847-6.473,43.389c5.246,29.398,21.569,34.952,17.907,55.17
							c-0.937,5.173-3.118,10.957-1.561,19.321C1890.543,2317.656,1894.814,2323.754,1898.301,2327.706z"/>
						<g style="opacity:0.3;">
							
								<linearGradient id="SVGID_00000142882402993582885210000009938201281117493932_" gradientUnits="userSpaceOnUse" x1="1956.6443" y1="2276.6946" x2="2012.1527" y2="2104.5381">
								<stop  offset="0" style="stop-color:#311944"/>
								<stop  offset="1" style="stop-color:#6B3976"/>
							</linearGradient>
							<path style="fill:url(#SVGID_00000142882402993582885210000009938201281117493932_);" d="M2048.137,2260.162
								c-1.432-14.393,9.665-21.382,7.802-31.627c-1.497-8.23-10.784-15.442-19.513-16.822
								c-18.639-2.948-30.719,24.977-49.294,22.437c-14.38-1.967-12.785-19.459-29.032-26.096
								c-25.789-10.535-52.871,24.092-70.079,15.087c-5.176-2.708-10.411-9.864-10.784-29.608
								c-9.885,11.592-6.006,33.367-4.567,41.428c5.246,29.398,21.57,34.952,17.908,55.17c-0.937,5.173-3.118,10.957-1.561,19.321
								c1.528,8.204,5.798,14.303,9.285,18.254c1.63,2.95,3.497,5.686,4.758,5.322c5.229-1.511-14.951-52.039,3.638-70.401
								c9.6-9.483,20.407-1.338,59.639-4.115c39.397-2.789,49.458-12.505,61.336-5.557c10.813,6.325,20.483,24.909,12.472,80.907
								c2.23-0.581,4.461-1.162,6.69-1.742c-3.004-18.186,0.275-29.804,4.022-37.168c1.126-2.214,2.626-4.703,3.975-7.549
								c-0.285-4.798-1.095-10.052-2.794-15.553C2050.047,2265.398,2048.597,2264.792,2048.137,2260.162z"/>
						</g>
					</g>
				</g>
			</g>
			<g>
				
					<linearGradient id="SVGID_00000129903690690189905630000016309946704769115034_" gradientUnits="userSpaceOnUse" x1="1584.0547" y1="1384.5908" x2="2311.9182" y2="1384.5908">
					<stop  offset="0" style="stop-color:#444B8C"/>
					<stop  offset="0.9964" style="stop-color:#26264F"/>
				</linearGradient>
				<path style="fill:url(#SVGID_00000129903690690189905630000016309946704769115034_);" d="M1959.609,1757.322
					c-204.062,8.057-375.554-157.932-375.554-370.282c0-212.35,171.492-380.649,375.554-375.34
					c197,5.125,352.31,171.232,352.31,370.439S2156.608,1749.545,1959.609,1757.322z"/>
				
					<linearGradient id="SVGID_00000145760418003343147760000001052000476820214682_" gradientUnits="userSpaceOnUse" x1="1610.2482" y1="1384.7378" x2="2336.7905" y2="1384.7378">
					<stop  offset="0" style="stop-color:#FF9085"/>
					<stop  offset="1" style="stop-color:#FB6FBB"/>
				</linearGradient>
				<path style="fill:url(#SVGID_00000145760418003343147760000001052000476820214682_);" d="M1985.116,1757.131
					c-203.69,8.048-374.868-157.789-374.868-369.944c0-212.155,171.178-380.301,374.868-375.002
					c196.643,5.117,351.674,171.072,351.674,370.1S2181.759,1749.361,1985.116,1757.131z"/>
				<path style="fill:#FFFFFF;" d="M2313.237,1382.445c0,185.996-144.532,342.16-328.121,348.999
					c-189.717,7.067-348.223-147.045-348.223-344.436s158.506-353.642,348.223-349.134
					C2168.705,1042.235,2313.237,1196.449,2313.237,1382.445z"/>
				<g>
					<defs>
						<path id="SVGID_00000160157402705633618340000016444224040653863831_" d="M2289.583,1382.604
							c0,172.588-134.274,317.196-304.467,323.151c-175.446,6.139-321.699-136.571-321.699-318.927s146.252-327.039,321.699-323.267
							C2155.309,1067.22,2289.583,1210.017,2289.583,1382.604z"/>
					</defs>
					<clipPath id="SVGID_00000085243356784720992110000017920434936313220759_">
						<use xlink:href="#SVGID_00000160157402705633618340000016444224040653863831_"  style="overflow:visible;"/>
					</clipPath>
					<g style="clip-path:url(#SVGID_00000085243356784720992110000017920434936313220759_);">
						
							<linearGradient id="SVGID_00000066487823867588363160000000800959818991729044_" gradientUnits="userSpaceOnUse" x1="2244.8145" y1="1201.1356" x2="1863.3142" y2="1952.0901">
							<stop  offset="0" style="stop-color:#444B8C"/>
							<stop  offset="0.9964" style="stop-color:#3E4177"/>
						</linearGradient>
						<path style="fill:url(#SVGID_00000066487823867588363160000000800959818991729044_);" d="M2305.394,1821.286
							c-32.816,45.907-103.263,17.942-315.521,21.822c-225.8,4.135-305.818,34.963-342.214-14.002
							c-33.591-45.17-5.758-208.613,34.221-254.477c45.273-51.901,109.947-68.27,193.456-74.692
							c32.638-2.513,68.137-3.49,106.453-4.5c36.552-0.949,68.986-1.817,98.128-1.235c72.23,1.439,124.204,11.63,167.724,50.735
							C2304.49,1596.011,2340.678,1771.937,2305.394,1821.286z"/>
						<path style="fill:#F9F9F9;" d="M2079.917,1494.201c-0.167,3.184-0.607,6.324-1.34,9.275
							c-11.193,44.614-35.703,137.969-60.213,202.623c-16.92,44.664-33.858,75.631-46.369,67.312
							c-9.803-6.505-21.555-29.415-33.547-59.59c-24.313-61.189-49.6-152.39-61.648-197.787c-1.357-5.057-1.782-10.748-1.463-16.1
							c32.638-2.513,68.137-3.49,106.453-4.5C2018.342,1494.488,2050.776,1493.619,2079.917,1494.201z"/>
						
							<linearGradient id="SVGID_00000131365804431243012340000006322436854031899304_" gradientUnits="userSpaceOnUse" x1="1959.0516" y1="1396.0602" x2="2005.2966" y2="1626.1577">
							<stop  offset="0" style="stop-color:#FFC444"/>
							<stop  offset="0.9964" style="stop-color:#F36F56"/>
						</linearGradient>
						<path style="fill:url(#SVGID_00000131365804431243012340000006322436854031899304_);" d="M1926.263,1392.539
							c0,0,14.471,104.468-5.543,114.411l56.901,62.237l57.405-73.526c0,0-21.672-16.469-15.961-102.613L1926.263,1392.539z"/>
						
							<linearGradient id="SVGID_00000018930873718061456730000012300245564573267885_" gradientUnits="userSpaceOnUse" x1="1955.4799" y1="1564.5472" x2="1997.9308" y2="1564.5472">
							<stop  offset="0" style="stop-color:#444B8C"/>
							<stop  offset="0.9964" style="stop-color:#3E4177"/>
						</linearGradient>
						<polygon style="fill:url(#SVGID_00000018930873718061456730000012300245564573267885_);" points="1955.48,1546.882 
							1997.931,1545.303 1984.605,1583.763 1962.76,1583.792 						"/>
						
							<linearGradient id="SVGID_00000116937736239402471040000003456648751049298855_" gradientUnits="userSpaceOnUse" x1="1938.4475" y1="1679.6606" x2="2018.3643" y2="1679.6606">
							<stop  offset="0" style="stop-color:#444B8C"/>
							<stop  offset="0.9964" style="stop-color:#3E4177"/>
						</linearGradient>
						<path style="fill:url(#SVGID_00000116937736239402471040000003456648751049298855_);" d="M2018.364,1707.632
							c-16.92,44.665-33.858,74.866-46.369,66.547c-9.803-6.505-21.555-28.262-33.547-58.437l24.315-131.951l21.849-0.029
							L2018.364,1707.632z"/>
						<g>
							
								<linearGradient id="SVGID_00000084511214907680176780000000813140418707793594_" gradientUnits="userSpaceOnUse" x1="2011.2189" y1="1101.9839" x2="1954.8741" y2="1449.9513">
								<stop  offset="0.0036" style="stop-color:#F36F56"/>
								<stop  offset="1" style="stop-color:#FFC444"/>
							</linearGradient>
							<path style="fill:url(#SVGID_00000084511214907680176780000000813140418707793594_);" d="M2062.175,1316.378
								c0,64.48-37.938,134.249-85.116,134.865c-47.602,0.621-86.506-69.277-86.506-134.811c0-65.534,38.904-101.021,86.506-100.584
								C2024.238,1216.281,2062.175,1251.897,2062.175,1316.378z"/>
							
								<linearGradient id="SVGID_00000162338370368585292260000001560823019383608242_" gradientUnits="userSpaceOnUse" x1="1981.5542" y1="1173.6902" x2="1954.0305" y2="1343.6682">
								<stop  offset="0" style="stop-color:#444B8C"/>
								<stop  offset="0.9964" style="stop-color:#26264F"/>
							</linearGradient>
							<path style="fill:url(#SVGID_00000162338370368585292260000001560823019383608242_);" d="M1887.98,1332.973
								c4.783-0.777,9.561-1.553,14.334-2.328c-2.193-5.36-11.247-29.107,0-49.866c10.783-19.904,36.138-29.489,55.464-28.07
								c21.917,1.609,35.053,11.992,46.027,4.061c6.163-4.454,8.158-12.592,8.863-18.934c0.486,4.063,1.588,10.076,4.425,16.728
								c8.147,19.1,21.918,23.119,29.41,35.733c5.041,8.488,8.32,22.682,0,47.678c4.153-0.262,8.303-0.524,12.45-0.786
								c4.376-14.03,9.623-33.917,12.884-58.246c4.842-36.112,8.172-60.961-5.575-73.207c-2.741-2.441-14.871-12.141-43.95-3.436
								c-6.822-7.341-21.21-20.814-43.381-27.801c-7.678-2.42-45.829-14.443-79.749,10.09
								c-23.119,16.721-41.268,48.248-35.432,74.512c3.086,13.884,11.52,20.151,18.939,46.979
								C1885.82,1317.405,1887.26,1326.928,1887.98,1332.973z"/>
							
								<linearGradient id="SVGID_00000165947670572330883570000017015983473127279765_" gradientUnits="userSpaceOnUse" x1="2098.8838" y1="1118.266" x2="2043.0165" y2="1463.2852">
								<stop  offset="0.0036" style="stop-color:#F36F56"/>
								<stop  offset="1" style="stop-color:#FFC444"/>
							</linearGradient>
							<path style="fill:url(#SVGID_00000165947670572330883570000017015983473127279765_);" d="M2050.379,1340.199
								c0,0,5.451-28.264,21.99-25.466c16.487,2.79-7.146,49.09-21.99,54.732V1340.199z"/>
							
								<linearGradient id="SVGID_00000011743708348381491730000005235062682719183256_" gradientUnits="userSpaceOnUse" x1="1929.0959" y1="1086.3265" x2="1872.2715" y2="1437.2568">
								<stop  offset="0.0036" style="stop-color:#F36F56"/>
								<stop  offset="1" style="stop-color:#FFC444"/>
							</linearGradient>
							<path style="fill:url(#SVGID_00000011743708348381491730000005235062682719183256_);" d="M1901.305,1340.584
								c0,0-5.613-28.666-22.714-25.819c-17.156,2.856,7.403,49.925,22.714,55.5V1340.584z"/>
						</g>
					</g>
				</g>
			</g>
			<g>
				
					<linearGradient id="SVGID_00000162337531545650955120000008789406209327330446_" gradientUnits="userSpaceOnUse" x1="882.8401" y1="2413.8909" x2="1544.3704" y2="2413.8909">
					<stop  offset="0" style="stop-color:#444B8C"/>
					<stop  offset="0.9964" style="stop-color:#26264F"/>
				</linearGradient>
				<path style="fill:url(#SVGID_00000162337531545650955120000008789406209327330446_);" d="M1223.801,2737.803
					c-185.362,6.212-340.961-138.517-340.961-322.822s155.599-330.061,340.961-325.071c179.166,4.823,320.57,149.606,320.57,322.889
					C1544.37,2586.083,1402.967,2731.798,1223.801,2737.803z"/>
				
					<linearGradient id="SVGID_00000180347313852071134990000006168117868721034649_" gradientUnits="userSpaceOnUse" x1="905.6871" y1="2413.2192" x2="1566.1931" y2="2413.2192">
					<stop  offset="0.0036" style="stop-color:#E38DDD"/>
					<stop  offset="1" style="stop-color:#9571F6"/>
				</linearGradient>
				<path style="fill:url(#SVGID_00000180347313852071134990000006168117868721034649_);" d="M1246.117,2736.881
					c-185.074,6.202-340.43-138.419-340.43-322.58s155.356-329.8,340.43-324.812c178.89,4.822,320.076,149.496,320.076,322.646
					C1566.193,2585.287,1425.007,2730.886,1246.117,2736.881z"/>
				<path style="fill:#FFFFFF;" d="M1544.735,2412.207c0,161.801-131.61,297.102-298.618,302.351
					c-172.385,5.417-316.258-128.976-316.258-300.335c0-171.359,143.873-306.696,316.258-302.408
					C1413.125,2115.967,1544.735,2250.406,1544.735,2412.207z"/>
				<g>
					<defs>
						<path id="SVGID_00000057870989967383550460000007808921448816635816_" d="M1523.187,2412.277
							c0,150.126-122.255,275.414-277.07,279.956c-159.426,4.677-292.193-119.771-292.193-278.09s132.767-283.638,292.193-280.006
							C1400.932,2137.665,1523.187,2262.152,1523.187,2412.277z"/>
					</defs>
					<clipPath id="SVGID_00000172441651282471882020000002784260957604541878_">
						<use xlink:href="#SVGID_00000057870989967383550460000007808921448816635816_"  style="overflow:visible;"/>
					</clipPath>
					<g style="clip-path:url(#SVGID_00000172441651282471882020000002784260957604541878_);">
						
							<linearGradient id="SVGID_00000084520736852221235710000009593053968312782992_" gradientUnits="userSpaceOnUse" x1="1647.8331" y1="1750.599" x2="866.4945" y2="3230.304">
							<stop  offset="0" style="stop-color:#AB316D"/>
							<stop  offset="1" style="stop-color:#792D3D"/>
						</linearGradient>
						<path style="fill:url(#SVGID_00000084520736852221235710000009593053968312782992_);" d="M1016.068,2620.785
							c-16.824-46.775,46.241-65.137,54.252-175.453c0.544-7.489,11.194-158.058,34.907-187.509
							c3.149-3.911,6.659-7.031,6.659-7.031c11.838-9.226,30.115-8.62,95.148-36.651c55.503-23.923,52.301-23.198,59.458-24.647
							c41.576-8.415,102.826,27.438,122.923,76.577c18.001,44.014-3.601,82.577,28.659,159.796l0.002,0.004
							c39.895,111.025,59.801,166.421,41.786,202.322C1404.971,2737.577,1053.761,2725.582,1016.068,2620.785z"/>
						
							<linearGradient id="SVGID_00000123424037755810951650000002242763572387786639_" gradientUnits="userSpaceOnUse" x1="1237.6228" y1="2610.9329" x2="1207.9999" y2="3140.4458">
							<stop  offset="0" style="stop-color:#444B8C"/>
							<stop  offset="0.9964" style="stop-color:#26264F"/>
						</linearGradient>
						<path style="fill:url(#SVGID_00000123424037755810951650000002242763572387786639_);" d="M929.859,2623.61
							c0,0,278.22-163.019,614.876-13.695c0,0-42.443,133.863-298.618,149.523C977.068,2775.886,929.859,2623.61,929.859,2623.61z"
							/>
						
							<linearGradient id="SVGID_00000101072063570207098170000001019671614202131085_" gradientUnits="userSpaceOnUse" x1="1236.3339" y1="2438.7874" x2="1237.4733" y2="2659.8577">
							<stop  offset="0.0036" style="stop-color:#F36F56"/>
							<stop  offset="1" style="stop-color:#FFC444"/>
						</linearGradient>
						<path style="fill:url(#SVGID_00000101072063570207098170000001019671614202131085_);" d="M1197.333,2413.345l-10.338,75.185
							c-3.529,25.667-21.637,47.416-46.865,56.196l-84.635,29.454c0,0,161.553,72.301,363.035-7.249l-91.501-29.534
							c-26.081-9.13-43.883-33.012-45.021-60.51l-2.641-63.811L1197.333,2413.345z"/>
						
							<linearGradient id="SVGID_00000060020110937519581240000010612363665988763038_" gradientUnits="userSpaceOnUse" x1="1268.6837" y1="2116.1365" x2="1217.2921" y2="2462.47">
							<stop  offset="0.0036" style="stop-color:#F36F56"/>
							<stop  offset="1" style="stop-color:#FFC444"/>
						</linearGradient>
						<path style="fill:url(#SVGID_00000060020110937519581240000010612363665988763038_);" d="M1322.16,2347.018
							c0,63.044-38.807,131.139-87.072,131.592c-48.703,0.457-88.51-68.02-88.51-132.105c0-64.086,39.807-98.656,88.51-98.067
							C1283.353,2249.021,1322.16,2283.974,1322.16,2347.018z"/>
						
							<linearGradient id="SVGID_00000174599256875965586160000004284629520802407578_" gradientUnits="userSpaceOnUse" x1="1395.5925" y1="2053.2249" x2="1097.4021" y2="2617.9404">
							<stop  offset="0" style="stop-color:#AB316D"/>
							<stop  offset="1" style="stop-color:#792D3D"/>
						</linearGradient>
						<path style="fill:url(#SVGID_00000174599256875965586160000004284629520802407578_);" d="M1143.629,2387.839
							c8.436-0.455-3.743-67.008,28.913-85.44c21.638-12.213,59.109-1.038,80.139,20.642c33.083,34.105,14.583,83.203,39.624,93.559
							c15.873,6.565,37.036-7.566,47.163-17.874c31.58-32.143,27.28-99.984-10.071-138.419
							c-29.845-30.711-70.452-32.094-80.126-32.133c-55.503-0.221-106.658,39.867-118.412,87.47
							C1121.819,2352.255,1137.387,2388.175,1143.629,2387.839z"/>
					</g>
				</g>
			</g>
			<g>
				<g>
					
						<linearGradient id="SVGID_00000121975322644485353040000006863627946125329067_" gradientUnits="userSpaceOnUse" x1="1209.7686" y1="1972.2954" x2="2714.5483" y2="1972.2954">
						<stop  offset="0" style="stop-color:#444B8C"/>
						<stop  offset="0.9964" style="stop-color:#26264F"/>
					</linearGradient>
					<path style="fill:url(#SVGID_00000121975322644485353040000006863627946125329067_);" d="M2707.756,2025.839
						c-3.633,0.064-6.795-2.927-6.795-6.673v-113.471l-1477.605,19.444v119.613c0,3.949-2.753,7.203-6.792,7.274
						c-4.041,0.071-6.795-3.08-6.795-7.031v-127.35c0-3.951,0.897-6.102,4.938-6.153l1494.632-18.926
						c3.632-0.046,5.21,1.941,5.21,5.686v120.696C2714.548,2022.692,2711.388,2025.775,2707.756,2025.839z"/>
				</g>
				<g>
					
						<linearGradient id="SVGID_00000068659061112281297170000011052129320036823191_" gradientUnits="userSpaceOnUse" x1="1974.0472" y1="1907.782" x2="1987.6344" y2="1907.782">
						<stop  offset="0" style="stop-color:#444B8C"/>
						<stop  offset="0.9964" style="stop-color:#26264F"/>
					</linearGradient>
					<path style="fill:url(#SVGID_00000068659061112281297170000011052129320036823191_);" d="M1980.842,2038.705
						c-3.83,0.067-6.795-3.002-6.795-6.849v-247.977c0-3.847,2.965-6.989,6.795-7.02c3.829-0.031,6.792,3.063,6.792,6.908v247.859
						C1987.634,2035.47,1984.671,2038.637,1980.842,2038.705z"/>
				</g>
			</g>
		</g>
	</g>
</g>
</svg>
