<?xml version="1.0" encoding="utf-8"?>
<!-- Generator: Adobe Illustrator 27.5.0, SVG Export Plug-In . SVG Version: 6.00 Build 0)  -->
<svg version="1.1" xmlns="http://www.w3.org/2000/svg" xmlns:xlink="http://www.w3.org/1999/xlink" x="0px" y="0px"
	 viewBox="0 0 3710 3710" style="enable-background:new 0 0 3710 3710;" xml:space="preserve">
<g id="Background">
	<g>
		<g>
			<rect style="fill:#FFFFFF;" width="3710" height="3710"/>
		</g>
	</g>
</g>
<g id="Illustration">
	<g>
		<path style="fill:#F4F7FA;" d="M1136.185,617.631c-95.808,134.127,12.558,354.354-128.565,454.501
			c-137.372,97.487-303.146-66.42-432.525,17.379c-191.928,124.31-163.202,702.673,111.685,1064.725
			c82.667,108.882,152.249,151.639,181.976,274.108c63.835,262.972-171.851,416.526-128.677,546.709
			c97.212,293.127,1636.93,554.435,2265.004-316.825c293.336-406.914,342.808-998.438,89.306-1450.766
			C2636.314,390.114,1351.163,316.676,1136.185,617.631z"/>
		<g>
			<g>
				<linearGradient id="SVGID_1_" gradientUnits="userSpaceOnUse" x1="2210.0212" y1="1650.7047" x2="1787.5066" y2="3258.3191">
					<stop  offset="0" style="stop-color:#FF9085"/>
					<stop  offset="1" style="stop-color:#FB6FBB"/>
				</linearGradient>
				<path style="fill:url(#SVGID_1_);" d="M1863.103,3061.444c-44.791,15.365-452.522-513.264-424.068-1093.715
					c44.247-902.625,1127.541-1610.007,1491.941-1432.143c99.847,48.736,180.88,181.095,188.91,302.256
					c10.138,152.973-93.727,323.792-219.792,408.172c-78.205,52.345-154.026,108.304-233.592,158.558
					c-37.554,23.719-81.528,50.626-78.999,82.433c2.496,31.389,47.94,38.114,89.303,75.564
					c61.891,56.037,94.01,162.189,68.877,231.75c-37.198,102.955-202.52,133.23-323.671,155.416
					c-150.982,27.649-226.187,4.341-307.886,72.095c-43.793,36.318-84.624,94.797-68.813,125.563
					c23.031,44.815,149.887-1.024,186.948,56.734c8.281,12.906,14.977,35.5-0.319,82.615
					c-66.548,204.998-343.684,240.497-372.601,419.59c-6.011,37.224,6.574,31.898,9.801,194.151
					C1871.235,3005.692,1872.28,3058.296,1863.103,3061.444z"/>
				<path style="opacity:0.3;fill:#FFFFFF;" d="M1848.263,2974.621c-15.807,3.143-229.748-420.668-180.313-911.875
					c83.029-825.031,878.715-1538.709,1190.073-1416.754c123.791,48.487,206.506,242.967,159.706,360.628
					c-82.685,207.88-554.266,137.328-628.523,365.78c-27.568,84.813,31.927,111.461,0,200.922
					c-72.305,202.596-414.693,170.319-448.208,319.413c-25.997,115.65,170.331,178.14,159.707,334.869
					c-9.056,133.602-155.856,149.198-236.985,329.718C1771.117,2763.369,1859.281,2972.43,1848.263,2974.621z"/>
			</g>
			
				<linearGradient id="SVGID_00000062179303254212239550000002771607061270610563_" gradientUnits="userSpaceOnUse" x1="1826.1063" y1="2412.2515" x2="890.5331" y2="3524.0913" gradientTransform="matrix(0.9933 -0.1152 0.1152 0.9933 456.3022 84.6027)">
				<stop  offset="0.0036" style="stop-color:#E38DDD"/>
				<stop  offset="1" style="stop-color:#9571F6"/>
			</linearGradient>
			<path style="fill:url(#SVGID_00000062179303254212239550000002771607061270610563_);" d="M1988.442,3069.016
				c-52.074-3.154-198.47-497.438,7.974-934.822c184.147-390.143,623-679.859,954.298-592.582
				c112.807,29.718,271.687,118.567,276.475,229.066c4.151,95.754-108.285,187.654-189.718,228.187
				c-132.667,66.036-239.145,23.658-264.528,83.834c-18.961,44.949,19.985,117.116,67.923,151.178
				c58.018,41.225,99.354,5.422,152.965,44.497c53.799,39.213,79.849,124.593,61.474,196.997
				c-19.544,77.009-82.804,113.573-108.262,128.288c-41.758,24.136-85.564,33.321-166.351,34.482
				c-136.452,1.963-181.189-21.798-260.9-24.929c-147.768-5.805-291.946,64.145-377.487,148.783
				C2004.994,2897.858,2019.455,3070.895,1988.442,3069.016z"/>
			<path style="opacity:0.5;fill:#FFFFFF;" d="M1987.363,3000.38c-10.251-1.777-80.02-566.062,278.199-984
				c204.306-238.365,564.416-447.626,767.623-345.173c56.422,28.447,133.365,97.369,123.644,159.707
				c-8.283,53.116-79.707,82.416-170.011,118.492c-194.817,77.829-282.409,47.336-314.261,108.188
				c-34.896,66.668,28.075,183.827,97.885,247.288c87.245,79.31,177.895,68.138,190.617,123.645
				c11.054,48.227-44.685,112.036-103.037,144.251c-125.804,69.456-219.6-32.314-458.513-10.303
				c-77.067,7.1-158.376,14.591-233.997,66.386C1991.424,2748.098,1994.299,3001.582,1987.363,3000.38z"/>
		</g>
		<g>
			
				<linearGradient id="SVGID_00000053534135126302477380000015793593042435470470_" gradientUnits="userSpaceOnUse" x1="3322.4697" y1="1036.9452" x2="1489.8185" y2="3540.3679">
				<stop  offset="0" style="stop-color:#444B8C"/>
				<stop  offset="0.9964" style="stop-color:#3E4177"/>
			</linearGradient>
			<path style="fill:url(#SVGID_00000053534135126302477380000015793593042435470470_);" d="M2118.037,2939.99
				c-75.232,99.606-37.917,278.453-166.215,262.211c-142.071-17.985-254.492-101.996-254.492-230.497
				c0-128.501,96.316-238.411,213.406-245.385C2025.961,2719.456,2248.565,2767.172,2118.037,2939.99z"/>
			
				<linearGradient id="SVGID_00000168104789632779249170000017763568855639509408_" gradientUnits="userSpaceOnUse" x1="2437.022" y1="829.2905" x2="855.9839" y2="2989.0068">
				<stop  offset="0" style="stop-color:#444B8C"/>
				<stop  offset="0.9964" style="stop-color:#3E4177"/>
			</linearGradient>
			<path style="fill:url(#SVGID_00000168104789632779249170000017763568855639509408_);" d="M1894.538,1068.08
				c-453.144-25.921-893.015,135.085-1248.938,433.971c-75.085,63.052-80.496,177.779-10.344,248.803l7.008,7.093
				c61.831,62.601,199.919,103.526,314.241,10.485c297.923-242.465,561.739-393.246,938.033-380.036
				c357.718,12.557,669.515,163.497,899.752,396.581c49.339,49.95,207.564,46.331,252.849-6.569l-79.731-5.885
				c50.502-58.994,46.637-156.117-7.519-212.385C2689.589,1279.304,2321.015,1092.475,1894.538,1068.08z"/>
			
				<linearGradient id="SVGID_00000085972027765482778500000017543616211009900703_" gradientUnits="userSpaceOnUse" x1="2671.5908" y1="960.1478" x2="1050.7957" y2="3174.1729">
				<stop  offset="0" style="stop-color:#444B8C"/>
				<stop  offset="0.9964" style="stop-color:#3E4177"/>
			</linearGradient>
			<path style="fill:url(#SVGID_00000085972027765482778500000017543616211009900703_);" d="M1894.538,1601.943
				c-310.052-6.317-606.483,108.515-847.679,310.238c-73.686,61.625-78.391,176.024-11.236,244.013l1.145,1.159
				c58.365,59.092,180.068,95.959,292.819,10.708c191.416-144.73,327.296-252.626,564.95-252.919
				c230.109-0.284,435.028,85.695,592.216,226.817c52.719,47.326,210.91,48.656,257.914-6.252l-1.146-17.898
				c53.238-62.188-31.539-152.637-90.069-207.191C2454.186,1724.883,2191.867,1608.001,1894.538,1601.943z"/>
			
				<linearGradient id="SVGID_00000155129235140046072470000018081553668028376977_" gradientUnits="userSpaceOnUse" x1="2899.3486" y1="1075.0265" x2="1239.1899" y2="3342.8225">
				<stop  offset="0" style="stop-color:#444B8C"/>
				<stop  offset="0.9964" style="stop-color:#3E4177"/>
			</linearGradient>
			<path style="fill:url(#SVGID_00000155129235140046072470000018081553668028376977_);" d="M1418.843,2544.18
				c54.942,55.623,222.231,58.446,286.031,10.992c79.379-59.038,90.282-95.215,189.662-99.047
				c98.034-3.78,188.108,24.178,262.625,74.922c58.76,40.018,220.264,31.819,268.992-25.101l-84.593-2.346
				c59.274-69.245,49.982-179.848-19.405-231.18c-119.23-88.206-266.011-139.273-427.62-136.613
				c-165.298,2.72-322.096,61.16-454.432,160.135c-79.167,59.208-89.893,178.751-21.978,247.512L1418.843,2544.18z"/>
		</g>
		<g>
			
				<linearGradient id="SVGID_00000114055674878981671000000002219424191052456342_" gradientUnits="userSpaceOnUse" x1="3308.9893" y1="1190.6169" x2="1593.2911" y2="3534.2803">
				<stop  offset="0" style="stop-color:#AA80F9"/>
				<stop  offset="0.9964" style="stop-color:#6165D7"/>
			</linearGradient>
			<path style="fill:url(#SVGID_00000114055674878981671000000002219424191052456342_);" d="M2215.114,2956.464
				c0,124.826-92.076,234.413-207.301,244.922c-117.09,10.679-213.405-84.706-213.405-213.207
				c0-128.501,96.316-238.411,213.405-245.385C2123.038,2735.93,2215.114,2831.639,2215.114,2956.464z"/>
			
				<linearGradient id="SVGID_00000122719959007960847590000001690684826958625966_" gradientUnits="userSpaceOnUse" x1="2523.0906" y1="791.4963" x2="942.1585" y2="2951.0679">
				<stop  offset="0" style="stop-color:#AA80F9"/>
				<stop  offset="0.9964" style="stop-color:#6165D7"/>
			</linearGradient>
			<path style="fill:url(#SVGID_00000122719959007960847590000001690684826958625966_);" d="M2007.814,1050.182
				c-453.144-25.921-893.015,135.085-1248.937,433.971c-75.085,63.052-80.496,177.779-10.344,248.803l7.008,7.093
				c61.831,62.601,160.169,67.59,224.989,11.116c289.623-252.32,650.991-393.877,1027.284-380.667
				c357.718,12.558,669.515,163.497,899.752,396.581c49.338,49.95,122.741,46.392,168.027-6.506l5.091-5.947
				c50.501-58.994,46.637-156.117-7.519-212.384C2802.865,1261.406,2434.291,1074.577,2007.814,1050.182z"/>
			
				<linearGradient id="SVGID_00000000913288827282213180000008829286905902842803_" gradientUnits="userSpaceOnUse" x1="2756.5054" y1="921.7211" x2="1136.1068" y2="3135.2041">
				<stop  offset="0" style="stop-color:#AA80F9"/>
				<stop  offset="0.9964" style="stop-color:#6165D7"/>
			</linearGradient>
			<path style="fill:url(#SVGID_00000000913288827282213180000008829286905902842803_);" d="M2007.814,1584.046
				c-310.051-6.317-606.483,108.515-847.679,310.238c-73.686,61.625-78.391,176.024-11.236,244.013l1.145,1.16
				c58.365,59.092,149.837,60.456,212.853,6.38c182.107-156.282,407.262-248.298,644.916-248.592
				c230.109-0.284,435.028,85.695,592.216,226.817c52.719,47.326,127.773,42.778,174.777-12.131l0.916-1.069
				c53.237-62.188,49.537-163.587-8.993-218.141C2567.462,1706.986,2305.143,1590.103,2007.814,1584.046z"/>
			
				<linearGradient id="SVGID_00000123440410010082531870000016234405653352746135_" gradientUnits="userSpaceOnUse" x1="2985.603" y1="1035.4766" x2="1323.5276" y2="3305.8909">
				<stop  offset="0" style="stop-color:#AA80F9"/>
				<stop  offset="0.9964" style="stop-color:#6165D7"/>
			</linearGradient>
			<path style="fill:url(#SVGID_00000123440410010082531870000016234405653352746135_);" d="M1532.12,2526.282
				c54.942,55.623,139.393,58.15,203.193,10.697c79.38-59.038,173.119-94.919,272.5-98.751
				c98.034-3.78,188.108,24.177,262.625,74.921c58.76,40.018,135.04,30.208,183.767-26.712l0.632-0.736
				c59.274-69.244,49.982-179.847-19.405-231.18c-119.23-88.205-266.011-139.272-427.62-136.613
				c-165.298,2.72-322.096,61.16-454.432,160.136c-79.167,59.208-89.893,178.751-21.978,247.511L1532.12,2526.282z"/>
		</g>
		<g>
			
				<linearGradient id="SVGID_00000098929797129230670820000014681781729754470847_" gradientUnits="userSpaceOnUse" x1="-1025.2058" y1="791.0246" x2="-807.5544" y2="791.0246" gradientTransform="matrix(1 0 0 1 1965.2019 0)">
				<stop  offset="0" style="stop-color:#FFC444"/>
				<stop  offset="0.9964" style="stop-color:#F36F56"/>
			</linearGradient>
			<path style="fill:url(#SVGID_00000098929797129230670820000014681781729754470847_);" d="M1113.928,660.537
				c-17.79-1.341-17.014,46.386-67.218,86.988c-44.881,36.298-77.994,24.432-96.872,56.344
				c-18.604,31.449-9.812,82.51,17.793,104.78c40.376,32.572,129.923-0.012,168.045-59.31
				C1184.428,773.503,1140.635,662.551,1113.928,660.537z"/>
			
				<linearGradient id="SVGID_00000005266634242351489730000003321402767651858617_" gradientUnits="userSpaceOnUse" x1="-1025.2058" y1="791.0246" x2="-807.5544" y2="791.0246" gradientTransform="matrix(1 0 0 1 1965.2019 0)">
				<stop  offset="0" style="stop-color:#FFC444"/>
				<stop  offset="0.9964" style="stop-color:#F36F56"/>
			</linearGradient>
			<path style="fill:url(#SVGID_00000005266634242351489730000003321402767651858617_);" d="M1113.928,660.537
				c-17.79-1.341-17.014,46.386-67.218,86.988c-44.881,36.298-77.994,24.432-96.872,56.344
				c-18.604,31.449-9.812,82.51,17.793,104.78c40.376,32.572,129.923-0.012,168.045-59.31
				C1184.428,773.503,1140.635,662.551,1113.928,660.537z"/>
			
				<linearGradient id="SVGID_00000012464660610240064280000017829691824906041476_" gradientUnits="userSpaceOnUse" x1="-217.8329" y1="1313.5916" x2="216.5611" y2="1313.5916" gradientTransform="matrix(1 0 0 1 963.6127 0)">
				<stop  offset="0" style="stop-color:#AA80F9"/>
				<stop  offset="0.9964" style="stop-color:#6165D7"/>
			</linearGradient>
			<path style="fill:url(#SVGID_00000012464660610240064280000017829691824906041476_);" d="M1099.973,1070.027
				c-145.264,35.266-240.947,91.878-296.828,131.923c-30.285,21.703-44.275,35.239-51.826,54.968
				c-43.03,112.434,178.048,282.435,201.608,300.237c10.292-23.996,20.582-47.991,30.871-71.987
				c-22.844-125.387-60.877-164.724-92.703-176.423c-8.903-3.272-23.848-6.781-23.558-10.994
				c0.686-9.962,84.657,4.234,164.904-25.128c80.017-29.279,160.412-103.361,146.057-152.34
				C1175.878,1111.344,1164.902,1085.499,1099.973,1070.027z"/>
			
				<linearGradient id="SVGID_00000151516279091242409650000003786977271178138545_" gradientUnits="userSpaceOnUse" x1="1199.1187" y1="1405.5485" x2="678.9568" y2="1114.5323">
				<stop  offset="0" style="stop-color:#311944"/>
				<stop  offset="1" style="stop-color:#A03976"/>
			</linearGradient>
			<path style="fill:url(#SVGID_00000151516279091242409650000003786977271178138545_);" d="M1099.973,1070.027
				c-145.264,35.266-240.947,91.878-296.828,131.923c-30.285,21.703-44.275,35.239-51.826,54.968
				c-43.03,112.434,178.048,282.435,201.608,300.237c10.292-23.996,20.582-47.991,30.871-71.987
				c-22.844-125.387-60.877-164.724-92.703-176.423c-8.903-3.272-23.848-6.781-23.558-10.994
				c0.686-9.962,84.657,4.234,164.904-25.128c80.017-29.279,160.412-103.361,146.057-152.34
				C1175.878,1111.344,1164.902,1085.499,1099.973,1070.027z"/>
			
				<linearGradient id="SVGID_00000010301112691475662960000005916419306882487717_" gradientUnits="userSpaceOnUse" x1="3108.0637" y1="1337.8282" x2="3126.8398" y2="1675.8041" gradientTransform="matrix(-0.9565 0.2918 0.2918 0.9565 3497.2832 -392.2555)">
				<stop  offset="0" style="stop-color:#444B8C"/>
				<stop  offset="0.9964" style="stop-color:#26264F"/>
			</linearGradient>
			<path style="fill:url(#SVGID_00000010301112691475662960000005916419306882487717_);" d="M959.115,1891.841
				c0,0,13.522,4.817,13.572,15.511c0.05,10.693-13.696,57.8-28.631,74.537c-14.933,16.737-16.268-8.233-15.345-24.319
				c0.923-16.086,4.838-52.093,8.531-59.056C940.935,1891.554,959.115,1891.841,959.115,1891.841z"/>
			
				<linearGradient id="SVGID_00000065059693072434608300000009272821735184584084_" gradientUnits="userSpaceOnUse" x1="-217.8326" y1="1329.9351" x2="216.5613" y2="1329.9351" gradientTransform="matrix(1 0 0 1 963.6127 0)">
				<stop  offset="0" style="stop-color:#311944"/>
				<stop  offset="1" style="stop-color:#A03976"/>
			</linearGradient>
			<path style="opacity:0.3;fill:url(#SVGID_00000065059693072434608300000009272821735184584084_);" d="M915.699,1234.408
				c-26.394-0.517-88.234-5.443-104.701,25.127c-13.736,25.505,10.328,64.169,25.129,87.949
				c40.235,64.65,79.288,71.263,106.795,110.983c10.647,15.376,20.293,36.849,23.364,67.533
				c5.838-13.611,11.675-27.221,17.511-40.833c-22.844-125.386-60.877-164.725-92.703-176.422
				c-8.903-3.272-23.848-6.781-23.558-10.994c0.686-9.963,84.657,4.234,164.904-25.128c72.942-26.69,145.951-90.557,147.463-138.754
				C1064.4,1216.716,977.466,1235.619,915.699,1234.408z"/>
			
				<linearGradient id="SVGID_00000164508735006303251980000005886414547243170238_" gradientUnits="userSpaceOnUse" x1="3102.8896" y1="1516.7296" x2="3092.9146" y2="1060.3892" gradientTransform="matrix(-0.9565 0.2918 0.2918 0.9565 3497.2832 -392.2555)">
				<stop  offset="0" style="stop-color:#FFC444"/>
				<stop  offset="0.9964" style="stop-color:#F36F56"/>
			</linearGradient>
			<path style="fill:url(#SVGID_00000164508735006303251980000005886414547243170238_);" d="M966.928,1846.401
				c-0.797,16.48-2.195,30.258-3.456,40.489c-2.791,22.636-5.356,31.593-8.87,39.752c-3.065,7.108-10.726,22.615-14.383,21.54
				c-3.716-1.09,0.108-18.271,3.002-66.051c0.421-6.935,1.698-29.013,1.698-29.013l0,0L966.928,1846.401z"/>
			
				<linearGradient id="SVGID_00000023267263122079775890000001445977336717058472_" gradientUnits="userSpaceOnUse" x1="831.6793" y1="1724.3099" x2="1457.2499" y2="1046.0365">
				<stop  offset="0" style="stop-color:#311944"/>
				<stop  offset="1" style="stop-color:#A03976"/>
			</linearGradient>
			<path style="fill:url(#SVGID_00000023267263122079775890000001445977336717058472_);" d="M1183.733,1079.451
				c-83.696,50.462-138.028,107.837-169.615,146.582c-37.29,45.738-94.011,115.312-114.548,219.052
				c-10.947,55.297-5.56,104.9,5.659,201.845c11.144,96.286,27.117,174.678,39.614,228.215c6.435,2.584,12.871,5.168,19.305,7.75
				c17.24-31.672,39.791-81.81,47.875-145.924c13.226-104.896-26.016-138.228-7.18-212.618
				c16.316-64.443,63.593-103.957,158.143-182.983c77.686-64.93,149.317-103.452,175.905-184.439
				c4.517-13.753,8.354-30.624,0.993-46.071C1324.023,1077.571,1263.329,1065.955,1183.733,1079.451z"/>
			
				<linearGradient id="SVGID_00000120521544377125544820000004409680429532941989_" gradientUnits="userSpaceOnUse" x1="975.2551" y1="420.5258" x2="460.1236" y2="851.8968" gradientTransform="matrix(0.9987 -0.0509 0.0509 0.9987 869.4207 27.2223)">
				<stop  offset="0" style="stop-color:#444B8C"/>
				<stop  offset="0.9964" style="stop-color:#26264F"/>
			</linearGradient>
			<path style="fill:url(#SVGID_00000120521544377125544820000004409680429532941989_);" d="M1255.184,671.623
				c-21.725-4.673-57.451-3.744-91.511-30.566c-10.254-8.074-46.578-36.679-42.168-77.607c3.883-36.031,38.032-55.395,42.223-57.702
				c24.176-13.306,48.278-10.349,75.007-6.694c34.661,4.739,46.173,14.208,70.259,20.701
				c59.585,16.061,79.735-17.463,139.726-14.634c76.676,3.614,83.308,60.242,147.819,61.655
				c72.422,1.586,86.3-69.293,157.804-81.301c99.249-16.669,249.416,90.175,246.391,213.343
				c-1.746,71.138-54.717,152.665-122.377,177.14c-39.437,14.266-81.993,9.736-94.14,35.38c-8.645,18.251,10.79,32.313,8.953,64.113
				c-2.362,40.997-37.659,69.766-43.359,74.411c-52.909,43.127-171.534,21.342-252.539-39.681
				C1351.195,900.137,1373.302,697.038,1255.184,671.623z"/>
			
				<linearGradient id="SVGID_00000036963166591692613140000004275980814366391696_" gradientUnits="userSpaceOnUse" x1="-584.2648" y1="1057.9091" x2="-165.9218" y2="681.7836" gradientTransform="matrix(-1 0 0 1 860.664 0)">
				<stop  offset="0" style="stop-color:#FFC444"/>
				<stop  offset="0.9964" style="stop-color:#F36F56"/>
			</linearGradient>
			<path style="fill:url(#SVGID_00000036963166591692613140000004275980814366391696_);" d="M1418.336,651.914
				c-49.202-6.062-105.949-10.676-169.009-11.533c-133.25-1.81-152.325,15.085-157.205,27.594
				c-9.1,23.316,6.487,35.002-2.364,75.657c-5.293,24.309-0.29,35.386-10.522,61.505c-9.972,25.453-2.15,39.139,6.667,98.825
				c11.274,76.321,16.475,115.11-4.883,145.877c-14.839,21.378-31.441,23.188-29.86,33.343
				c3.371,21.635,78.175,9.703,172.883,51.237c27.417,12.022,52.652,26.839,73.814,39.263
				c49.553,29.092,58.721,40.217,81.668,53.397c72.57,41.685,181.581,45.703,238.718-4.712
				c21.301-18.795,36.825-46.424,29.84-56.538c-9.513-13.77-52.053,17.508-91.089-1.571c-25.861-12.64-20.947-33.087-50.846-57.179
				c-35.981-28.996-60.997-13.802-85.489-32.669c-38.204-29.429-20.823-99.894-10.1-218.034
				C1414.998,807.468,1419.451,737.632,1418.336,651.914z"/>
			
				<linearGradient id="SVGID_00000084490299928996514410000003955789887069240220_" gradientUnits="userSpaceOnUse" x1="-660.9408" y1="1691.8143" x2="-783.4446" y2="1844.1588" gradientTransform="matrix(0.2558 0.9667 -0.9667 0.2558 3201.1848 986.3447)">
				<stop  offset="0" style="stop-color:#311944"/>
				<stop  offset="1" style="stop-color:#A03976"/>
			</linearGradient>
			<path style="fill:url(#SVGID_00000084490299928996514410000003955789887069240220_);" d="M1274.566,726.622l-14.78-2.518
				c0,0-24.87-61.585-49.094-44.202c-24.225,17.385-6.44,20.611,1.687,22.631c8.127,2.018,25.282,21.203,28.527,29.752
				c3.246,8.549,28.961,16.945,28.961,16.945L1274.566,726.622z"/>
			
				<linearGradient id="SVGID_00000029046813262131196320000011161490669093694084_" gradientUnits="userSpaceOnUse" x1="-379.3406" y1="561.2994" x2="-388.7224" y2="634.6478" gradientTransform="matrix(-1 0 0 1 860.664 0)">
				<stop  offset="0" style="stop-color:#311944"/>
				<stop  offset="1" style="stop-color:#A03976"/>
			</linearGradient>
			<path style="fill:url(#SVGID_00000029046813262131196320000011161490669093694084_);" d="M1274.132,624.467
				c18.173,11.273,47.551,26.009,50.787,30.01c3.235,3.995-88.999,19.788-146.39-9.173c0,0-8.897-4.943,25.701-11.862
				c7.372-1.474,5.931-15.816,4.943-30.644l6.919-12.85C1216.093,589.949,1255.961,613.186,1274.132,624.467z"/>
			
				<linearGradient id="SVGID_00000150069399922298812410000010211751942067626674_" gradientUnits="userSpaceOnUse" x1="-334.935" y1="544.9085" x2="-334.935" y2="558.5547" gradientTransform="matrix(-1 0 0 1 860.664 0)">
				<stop  offset="0" style="stop-color:#311944"/>
				<stop  offset="1" style="stop-color:#A03976"/>
			</linearGradient>
			<path style="fill:url(#SVGID_00000150069399922298812410000010211751942067626674_);" d="M1219.491,590.561
				c0,0,4.617,19.584-12.63,29.263c-15.443,8.668-41.57-26.862-36.69-40.067c1.627-4.404,7.443-10.065,13.521-11.968
				c4.274-1.339,20.449-0.822,27.376,12.795c1.815-3.982,5.063-6.069,7.247-5.414c2.77,0.828,3.177,5.87,3.271,7.012
				C1221.905,586.142,1220.308,589.213,1219.491,590.561z"/>
			<g>
				<g>
					
						<linearGradient id="SVGID_00000156589766345165690090000017975334291159274156_" gradientUnits="userSpaceOnUse" x1="1603.0515" y1="1443.033" x2="1577.9714" y2="1407.4193" gradientTransform="matrix(-0.2291 -0.9734 0.9734 -0.2291 114.2971 2554.8499)">
						<stop  offset="0" style="stop-color:#AA80F9"/>
						<stop  offset="0.9964" style="stop-color:#6165D7"/>
					</linearGradient>
					<path style="fill:url(#SVGID_00000156589766345165690090000017975334291159274156_);" d="M1113.562,737.838l75.53,3.81
						c2.894,0.146,6.35-3.436,5.638-5.874l-35.282-114.175c-0.556-1.898-2.488-3.165-4.638-3.046l-72.436,1.588
						c-2.36,0.139-3.654,4.787-3.012,7.084l30.013,107.36C1109.87,736.354,1111.653,737.742,1113.562,737.838z"/>
					
						<linearGradient id="SVGID_00000034067370394723617750000007877440753266212503_" gradientUnits="userSpaceOnUse" x1="1555.5883" y1="1505.059" x2="1615.3092" y2="1383.751" gradientTransform="matrix(-0.2291 -0.9734 0.9734 -0.2291 114.2971 2554.8499)">
						<stop  offset="0" style="stop-color:#AA80F9"/>
						<stop  offset="0.9964" style="stop-color:#6165D7"/>
					</linearGradient>
					<path style="fill:url(#SVGID_00000034067370394723617750000007877440753266212503_);" d="M1111.729,735.085l75.946,3.564
						c2.911,0.136,4.918-1.946,4.206-4.388l-33.926-116.149c-0.557-1.904-2.5-3.17-4.662-3.042l-72.537,4.289
						c-2.372,0.141-3.97,2.425-3.326,4.73l30.093,107.743C1108.019,733.607,1109.811,734.996,1111.729,735.085z"/>
				</g>
				
					<linearGradient id="SVGID_00000151533331011190077660000009927236747885431230_" gradientUnits="userSpaceOnUse" x1="1520.7699" y1="1425.1757" x2="1651.0183" y2="1425.1757" gradientTransform="matrix(-0.2291 -0.9734 0.9734 -0.2291 114.2971 2554.8499)">
					<stop  offset="0" style="stop-color:#AA80F9"/>
					<stop  offset="0.9964" style="stop-color:#6165D7"/>
				</linearGradient>
				<path style="fill:url(#SVGID_00000151533331011190077660000009927236747885431230_);" d="M1150.391,666.79
					c-2.249,10.562-11.75,8.288-19.5,21.073c-9.839,16.231-0.41,30.563-9.429,36.507c-2.752,1.814-7.404,2.904-15.772,0.715
					l2.153,7.707c0.496,1.775,2.287,3.163,4.206,3.253l75.947,3.564c2.91,0.136,4.918-1.947,4.205-4.388l-33.925-116.149
					c-0.557-1.905-2.5-3.171-4.663-3.042l-10.896,0.644c-1.28,3.991-2.196,8.598-2.096,13.7
					C1140.964,647.888,1153.025,654.417,1150.391,666.79z"/>
			</g>
			
				<linearGradient id="SVGID_00000142888975564479124260000000891110574008567697_" gradientUnits="userSpaceOnUse" x1="-570.5214" y1="1073.1948" x2="-152.1768" y2="697.0679" gradientTransform="matrix(-1 0 0 1 860.664 0)">
				<stop  offset="0" style="stop-color:#FFC444"/>
				<stop  offset="0.9964" style="stop-color:#F36F56"/>
			</linearGradient>
			<path style="opacity:0.3;fill:url(#SVGID_00000142888975564479124260000000891110574008567697_);" d="M1186.987,1066.025
				c27.44,11.373,31.144,35.952,69.084,49.894c36.193,13.3,48.337-3.366,84.436,7.676c54.22,16.585,74.951,68.902,83.157,63.967
				c7.519-4.521,0.308-54.569-34.542-86.995c-40.024-37.239-83.132-20.186-108.743-58.85c-9.965-15.043-17.648-39.074-8.955-57.57
				c11.78-25.063,42.546-16.371,58.85-37.1c29.292-37.243-39.256-104.416-20.47-161.197c7.498-22.661,31.37-51.063,108.358-70.075
				c-1.045,56.916-4.324,104.479-7.603,140.6c-10.723,118.14-28.104,188.606,10.1,218.035c24.492,18.867,49.508,3.674,85.489,32.67
				c29.899,24.092,24.985,44.539,50.846,57.179c39.037,19.079,81.576-12.198,91.089,1.57c6.985,10.115-8.539,37.743-29.84,56.539
				c-57.136,50.414-166.147,46.397-238.718,4.712c-22.947-13.181-32.114-24.306-81.668-53.397
				c-21.162-12.425-46.397-27.241-73.814-39.263c-66.464-29.147-123.085-31.969-152.134-38.534
				C1129.582,1057.427,1164.715,1056.793,1186.987,1066.025z"/>
			
				<linearGradient id="SVGID_00000177446479812372774600000006783113108541561519_" gradientUnits="userSpaceOnUse" x1="-137.7494" y1="750.0104" x2="-289.9909" y2="966.2188" gradientTransform="matrix(-1 0 0 1 860.664 0)">
				<stop  offset="0" style="stop-color:#FFC444"/>
				<stop  offset="0.9964" style="stop-color:#F36F56"/>
			</linearGradient>
			<path style="fill:url(#SVGID_00000177446479812372774600000006783113108541561519_);" d="M1097.123,686.237
				c20.184,10.979-6.55,129.678-44.482,188.804c-11.158,17.393-48.143,44.282-78.091,36.574
				c-23.034-5.928-35.498-55.896-30.643-87.977c4.413-29.156,37.27-50.478,79.08-87.975
				C1064.064,698.822,1085.279,679.795,1097.123,686.237z"/>
			
				<linearGradient id="SVGID_00000097478318741305231420000006208708653239571343_" gradientUnits="userSpaceOnUse" x1="-209.0639" y1="718.351" x2="-254.2669" y2="645.0029" gradientTransform="matrix(-1 0 0 1 860.664 0)">
				<stop  offset="0" style="stop-color:#311944"/>
				<stop  offset="1" style="stop-color:#A03976"/>
			</linearGradient>
			<path style="fill:url(#SVGID_00000097478318741305231420000006208708653239571343_);" d="M1086.25,689.45l-4.621-14.376
				c-1.306-4.061,0.412-8.5,4.154-10.549c5.184-2.839,12.613-5.367,18.26-1.023c9.638,7.413-6.672,45.965-10.379,42.999
				C1089.956,703.536,1086.25,689.45,1086.25,689.45z"/>
			
				<linearGradient id="SVGID_00000101808197555539184510000003863004264831388062_" gradientUnits="userSpaceOnUse" x1="-545.092" y1="928.0107" x2="-562.7998" y2="615.1727" gradientTransform="matrix(-1 0 0 1 860.664 0)">
				<stop  offset="0" style="stop-color:#FFC444"/>
				<stop  offset="0.9964" style="stop-color:#F36F56"/>
			</linearGradient>
			<path style="fill:url(#SVGID_00000101808197555539184510000003863004264831388062_);" d="M1325.156,665.593
				c12.045-22.425,59.755-22.888,90.833-15.352c85.628,20.763,173.34,133.381,140.727,231.56
				c-1.993,6.001-24.894,71.932-78.04,84.436c-68.823,16.193-167.921-62.017-216.208-211.091
				c4.691-11.088,9.382-22.175,14.073-33.263c18.189,18.939,45.805,46.296,81.877,76.76c44.078,37.226,78.313,60.118,79.319,58.85
				c0.997-1.257-33.225-23.008-65.247-66.526c-20.666-28.086-29.603-50.545-35.821-66.525
				C1324.593,693.403,1318.554,677.884,1325.156,665.593z"/>
		</g>
		<g>
			
				<linearGradient id="SVGID_00000118388219201196750580000014493262592493025450_" gradientUnits="userSpaceOnUse" x1="-1640.0858" y1="2520.4226" x2="-1234.3013" y2="2520.4226" gradientTransform="matrix(-1 0 0 1 1264.0297 0)">
				<stop  offset="0" style="stop-color:#444B8C"/>
				<stop  offset="0.9964" style="stop-color:#3E4177"/>
			</linearGradient>
			<path style="fill:url(#SVGID_00000118388219201196750580000014493262592493025450_);" d="M2557.653,2186.359
				c74.833-36.546,220.792,95.826,291.824,222.618c28.307,50.525,61.54,109.847,53.385,180.369
				c-14.456,125.028-153.149,234.698-344.048,271.311c-5.374-19.195-10.749-38.388-16.123-57.581
				c20.874-21.738,52.087-53.124,91.979-89.083c61.278-55.237,73.87-58.919,76.809-76.358
				c9.626-57.122-137.268-104.94-189.517-205.375C2477.041,2345.909,2500.166,2214.435,2557.653,2186.359z"/>
			
				<linearGradient id="SVGID_00000169536688071025925860000001122646753710837636_" gradientUnits="userSpaceOnUse" x1="-1535.5154" y1="3221.7271" x2="-1384.0575" y2="3221.7271" gradientTransform="matrix(-1 0 0 1 1264.0297 0)">
				<stop  offset="0" style="stop-color:#311944"/>
				<stop  offset="1" style="stop-color:#6B3976"/>
			</linearGradient>
			<path style="fill:url(#SVGID_00000169536688071025925860000001122646753710837636_);" d="M2655.967,3191.247
				c0,0-12.286,30.309-6.176,42.178c6.11,11.868,35.59,4.364,77.157,10.717c41.567,6.354,70.248,16.071,72.552,7.459
				c2.303-8.611-83.835-54.07-90.72-60.354C2701.895,3184.963,2655.967,3191.247,2655.967,3191.247z"/>
			
				<linearGradient id="SVGID_00000029743336088816006950000000767432970929975991_" gradientUnits="userSpaceOnUse" x1="-1363.1888" y1="2956.3191" x2="-1416.163" y2="3287.9814" gradientTransform="matrix(-1 0 0 1 1264.0297 0)">
				<stop  offset="0" style="stop-color:#311944"/>
				<stop  offset="1" style="stop-color:#A03976"/>
			</linearGradient>
			<path style="fill:url(#SVGID_00000029743336088816006950000000767432970929975991_);" d="M2666.976,3145.938l29.067,45.309
				c0,0-13.396,13.219-36.158,8.298l-31.975-42.925L2666.976,3145.938z"/>
			
				<linearGradient id="SVGID_00000032612566252314596570000002904145287456241072_" gradientUnits="userSpaceOnUse" x1="-1640.0853" y1="2520.4519" x2="-1234.3032" y2="2520.4519" gradientTransform="matrix(-1 0 0 1 1264.0297 0)">
				<stop  offset="0" style="stop-color:#444B8C"/>
				<stop  offset="0.9964" style="stop-color:#3E4177"/>
			</linearGradient>
			<path style="opacity:0.3;fill:url(#SVGID_00000032612566252314596570000002904145287456241072_);" d="M2521.962,2432.26
				c-44.921-86.352-21.796-217.826,35.691-245.901c15.075-7.361,33.065-7.772,52.719-2.85c-10.349,29.885-8.298,51.493-3.191,66.797
				c22.776,68.262,121.247,60.496,152.012,138.193c19.448,49.116-11.478,73.489,16.122,112.857
				c28.604,40.8,75.378,33.959,89.825,73.703c10.765,29.613-10.463,46.452-2.303,71.399c2.274,6.953,6.755,13.932,14.29,20.562
				c-50.591,90.987-168.317,164.869-318.314,193.637c-5.374-19.195-10.749-38.388-16.123-57.581
				c20.874-21.738,52.087-53.124,91.979-89.083c61.278-55.237,73.87-58.919,76.809-76.358
				C2721.105,2580.513,2574.212,2532.695,2521.962,2432.26z"/>
			
				<linearGradient id="SVGID_00000050659570714964163360000008036692680011548800_" gradientUnits="userSpaceOnUse" x1="-1415.2268" y1="2694.7139" x2="-1068.2609" y2="2694.7139" gradientTransform="matrix(-1 0 0 1 1264.0297 0)">
				<stop  offset="0" style="stop-color:#444B8C"/>
				<stop  offset="0.9964" style="stop-color:#3E4177"/>
			</linearGradient>
			<path style="fill:url(#SVGID_00000050659570714964163360000008036692680011548800_);" d="M2608.717,2213.455
				c-3.238,130.867-1.422,272.366,8.056,423.001c12.101,192.344,34.771,369.011,62.484,527.766
				c-12.311,3.917-24.62,7.833-36.93,11.75c-126.613-123.362-164.501-231.882-174.874-309.941
				c-7.331-55.179,3.764-59.922-6.131-128.982c-18.845-131.516-68.006-176.557-102.528-299.678
				c-12.957-46.212-27.382-116.023-26.461-207.025C2424.46,2224.716,2516.589,2219.085,2608.717,2213.455z"/>
			<path style="fill:#FFFFFF;" d="M2699.414,1979.047c-2.298,0.527-12.279,3.847-16.226,45.545
				c-9.517,100.542,42.832,141.248,29.942,195.773c-12.373,52.336-75.473,77.728-140.422,103.864
				c-43.404,17.467-177.648,71.485-255.719,10.742c-32.857-25.565-36.453-56.43-59.893-169.883
				c-59.557-288.257-82.628-313.022-57.58-375.423c43.014-107.161,158.185-151.538,177.347-158.922
				c204.322-78.729,445.605,65.968,540.95,232.204c12.555,21.888,87.531,152.613,34.852,214.619
				c-31.87,37.511-105.106,43.567-153.438,17.988C2734.65,2061.377,2720.929,1974.115,2699.414,1979.047z"/>
			
				<linearGradient id="SVGID_00000183230803545568306050000014143292051089407622_" gradientUnits="userSpaceOnUse" x1="-1595.4945" y1="1966.7627" x2="-1551.7334" y2="2108.7942" gradientTransform="matrix(-1 0 0 1 1264.0297 0)">
				<stop  offset="0.0036" style="stop-color:#E38DDD"/>
				<stop  offset="1" style="stop-color:#9571F6"/>
			</linearGradient>
			<path style="opacity:0.3;fill:url(#SVGID_00000183230803545568306050000014143292051089407622_);" d="M2922.726,2055.299
				c0.638,0,1.286-0.135,1.907-0.418c2.312-1.053,3.333-3.784,2.281-6.1c-1.751-3.833-43.928-94.351-141.392-130.069
				c-2.393-0.886-5.033,0.347-5.906,2.74c-0.877,2.388,0.351,5.033,2.74,5.906c93.747,34.36,135.758,124.342,136.172,125.245
				C2919.302,2054.3,2920.975,2055.299,2922.726,2055.299z"/>
			
				<linearGradient id="SVGID_00000165230166487894137430000016404546536292634544_" gradientUnits="userSpaceOnUse" x1="-1047.6038" y1="1568.1216" x2="-1299.4222" y2="2464.8416" gradientTransform="matrix(-1 0 0 1 1264.0297 0)">
				<stop  offset="0.0036" style="stop-color:#E38DDD"/>
				<stop  offset="1" style="stop-color:#9571F6"/>
			</linearGradient>
			<path style="opacity:0.3;fill:url(#SVGID_00000165230166487894137430000016404546536292634544_);" d="M2333.1,1752.814
				c12.895,35.106-25.798,65.527-9.213,103.644c23.771,54.628,118.238,26.59,152.012,80.613
				c40.028,64.026-51.635,169.042-13.819,204.985c17.232,16.379,37.143-4.598,87.521,6.91
				c71.749,16.389,93.307,73.086,126.677,64.489c10.496-2.704,23.218-12.231,33.922-41.563c4.667,16.274,6.888,31.724,2.929,48.472
				c-12.373,52.336-75.473,77.728-140.423,103.864c-43.405,17.467-177.647,71.485-255.719,10.742
				c-32.857-25.565-36.453-56.43-59.893-169.883c-59.557-288.257-82.628-313.022-57.58-375.423
				c13.658-34.026,34.596-61.7,57.42-83.892C2306.143,1716.642,2326.35,1734.435,2333.1,1752.814z"/>
			<path style="fill:#FFFFFF;" d="M2456.613,1973.052c-5.513,5.013-61.41,54.249-128.65,37.437
				c-58.559-14.643-94.512-71.576-100.811-119.483c-14.979-113.934,133.459-209.567,115.16-232.624
				c-10.896-13.731-69.339,12.864-108.25,36.851c-40.393,24.898-149.544,92.183-172.807,224.222
				c-1.978,11.222-27.644,168.64,62.222,233.655c83.09,60.113,245.846,27.414,356.073-114.776
				C2471.904,2016.574,2464.258,1994.814,2456.613,1973.052z"/>
			
				<linearGradient id="SVGID_00000158000164727211999220000004366560507235828666_" gradientUnits="userSpaceOnUse" x1="2585.1499" y1="2010.2813" x2="2595.4539" y2="1896.9353">
				<stop  offset="0" style="stop-color:#444B8C"/>
				<stop  offset="0.9964" style="stop-color:#3E4177"/>
			</linearGradient>
			<path style="fill:url(#SVGID_00000158000164727211999220000004366560507235828666_);" d="M2817.006,1868.983l-66.553,212.597
				c-2.183,6.971-8.526,11.806-15.825,12.064l-358.15,12.651c-11.224,0.397-19.817-9.884-17.436-20.858l46.311-213.468
				c1.675-7.724,8.393-13.315,16.292-13.56l378.393-11.781C2811.877,1846.259,2820.544,1857.678,2817.006,1868.983z"/>
			
				<linearGradient id="SVGID_00000121959917491744897390000014591956146472162432_" gradientUnits="userSpaceOnUse" x1="2586.0261" y1="1930.0281" x2="2603.1997" y2="2080.2976">
				<stop  offset="0" style="stop-color:#444B8C"/>
				<stop  offset="0.9964" style="stop-color:#3E4177"/>
			</linearGradient>
			<path style="fill:url(#SVGID_00000121959917491744897390000014591956146472162432_);" d="M2813.813,1875.973l-64.594,206.335
				c-2.117,6.766-8.273,11.459-15.357,11.709l-347.602,12.28c-10.892,0.385-19.233-9.593-16.921-20.244l44.946-207.18
				c1.626-7.495,8.146-12.922,15.812-13.161l367.247-11.434C2808.836,1853.919,2817.248,1865.001,2813.813,1875.973z"/>
			
				<linearGradient id="SVGID_00000103238360081416286410000002601702819880987015_" gradientUnits="userSpaceOnUse" x1="-1129.4761" y1="2175.449" x2="-1306.0553" y2="1985.8185" gradientTransform="matrix(-1 0 0 1 1264.0297 0)">
				<stop  offset="0" style="stop-color:#444B8C"/>
				<stop  offset="0.9964" style="stop-color:#3E4177"/>
			</linearGradient>
			<path style="opacity:0.3;fill:url(#SVGID_00000103238360081416286410000002601702819880987015_);" d="M2369.339,2086.052
				l42.903-197.755c7.28,17.214,16.67,25.91,25.654,30.348c25.868,12.778,46.008-10.247,102.493-8.061
				c21.6,0.836,65.764,2.545,93.28,31.094c25.861,26.833,14.866,54.397,31.093,92.129c8.192,19.048,23.392,40.639,52.685,60.791
				l-331.187,11.698C2375.368,2106.68,2367.027,2096.702,2369.339,2086.052z"/>
			
				<linearGradient id="SVGID_00000130633464347834988840000013809337309707858079_" gradientUnits="userSpaceOnUse" x1="-1268.6282" y1="1446.0984" x2="-1297.8022" y2="1694.8461" gradientTransform="matrix(-1 0 0 1 1264.0297 0)">
				<stop  offset="0" style="stop-color:#311944"/>
				<stop  offset="1" style="stop-color:#A03976"/>
			</linearGradient>
			<path style="fill:url(#SVGID_00000130633464347834988840000013809337309707858079_);" d="M2587.479,1610.259
				c-3.808,13.362,4.231,27.25,17.738,30.509c16.362,3.948,36.292,9.407,44.899,14.331c15.798,9.041-48.122-1.403-106.916-2.782
				c-36.705-0.861-64.133-4.981-79.562-7.955c-4.142-0.8-4.462-6.581-0.453-7.885c14.692-4.78,38.579-11.817,58.765-14.354
				c24.992-3.142,51.793-58.292,51.793-58.292l21.418,19.456L2587.479,1610.259z"/>
			
				<linearGradient id="SVGID_00000156579165498500502850000012142289743329009053_" gradientUnits="userSpaceOnUse" x1="-1539.8826" y1="1942.6366" x2="-1469.6803" y2="1942.6366" gradientTransform="matrix(-1 0 0 1 1264.0297 0)">
				<stop  offset="0" style="stop-color:#311944"/>
				<stop  offset="1" style="stop-color:#A03976"/>
			</linearGradient>
			<path style="fill:url(#SVGID_00000156579165498500502850000012142289743329009053_);" d="M2800.219,1936.738l-4.064-6.646
				c-3.595-13.803-16.855-22.812-31.013-21.066l-21.355,2.634c-6.683,0.824-11.204,7.181-9.83,13.773
				c1.987,9.532,7.101,20.936,20.222,20.05c22.289-1.503,36.537,30.979,36.537,30.979l8.554-12.049
				C2805.095,1956.21,2805.468,1945.322,2800.219,1936.738z"/>
			
				<linearGradient id="SVGID_00000124852787068265077760000018242779220276315813_" gradientUnits="userSpaceOnUse" x1="-1916.4028" y1="593.9473" x2="-1984.7192" y2="420.436" gradientTransform="matrix(-0.8789 -0.477 -0.477 0.8789 1097.9517 210.4266)">
				<stop  offset="0" style="stop-color:#311944"/>
				<stop  offset="1" style="stop-color:#6B3976"/>
			</linearGradient>
			<path style="fill:url(#SVGID_00000124852787068265077760000018242779220276315813_);" d="M2635.213,1581.995
				c18.472-2.737,39.163-18.265,38.761-31.096c-0.552-17.634-40.865-27.292-61.219-32.168c-20.417-4.891-29.076-3.121-34.921,1.328
				c-5.971,4.546-9.894,12.683-11.177,19.7c-0.7,3.824-0.736,9.086-0.082,19.571c0.582,9.305,0.411,8.897,0.652,11.646
				c0.581,6.603,2.382,18.215,8.818,34.312c2.681-2.939,6.23-6.45,10.712-9.911c1.724-1.331,8.547-6.487,16.305-9.611
				C2616.378,1580.404,2624,1583.655,2635.213,1581.995z"/>
			
				<linearGradient id="SVGID_00000155112786589015696630000006610298055935491756_" gradientUnits="userSpaceOnUse" x1="-1295.002" y1="1479.7197" x2="-1322.6406" y2="1548.8163" gradientTransform="matrix(-1 0 0 1 1264.0297 0)">
				<stop  offset="0" style="stop-color:#311944"/>
				<stop  offset="1" style="stop-color:#A03976"/>
			</linearGradient>
			<path style="fill:url(#SVGID_00000155112786589015696630000006610298055935491756_);" d="M2566.218,1587.347
				c0,0,1.197,25.732,25.443,37.029c21.711,10.115,50.524-35.214,42.597-52.523c-2.644-5.773-10.833-12.054-19.224-13.999
				c-4.955-1.149-7.387-0.16-15.449-2.194c-7.434-1.877-8.88-3.607-11.75-3.028c-3.592,0.722-8.17,4.809-11.591,20.799
				c-1.781-6.24-5.732-10.423-10.011-10.679c-0.684-0.041-2.659,0.15-4.281,1.19
				C2556.08,1567.708,2557.227,1577.25,2566.218,1587.347z"/>
		</g>
	</g>
</g>
</svg>
